<svg id="Capa_1" data-name="Capa 1" xmlns="http://www.w3.org/2000/svg" viewBox="0 0 44.99 44.99"><path d="M20,14.59H10.58c-.57,0-.57,0-.57.55v13.8c0,.56,0,.56.57.56H21c.66,0,.64,0,.67.66a9.49,9.49,0,0,0,.39,2.19c.18.61.18.6-.47.6H10.31a4.32,4.32,0,0,1-1.46-.22A3.38,3.38,0,0,1,6.6,29.85c0-.44,0-.88,0-1.33,0-5.6,0-11.2,0-16.81a4.74,4.74,0,0,1,.14-1.35,3.39,3.39,0,0,1,3.35-2.54c.38,0,.76,0,1.14,0s.38-.11.38-.39c0-.82,0-1.65,0-2.47,0-.37.13-.51.5-.5.83,0,1.67,0,2.5,0,.34,0,.47.12.47.46,0,.82,0,1.64,0,2.46,0,.31.08.44.42.44q4.53,0,9.08,0c.32,0,.43-.1.42-.43,0-.82,0-1.64,0-2.46,0-.33.08-.47.44-.47.86,0,1.72,0,2.58,0,.3,0,.41.11.41.41,0,.84,0,1.67,0,2.5,0,.36.12.45.46.44A6.51,6.51,0,0,1,31,8a3.33,3.33,0,0,1,2.32,3.11c0,2.74,0,5.48,0,8.22,0,.3-.07.41-.4.35a8.13,8.13,0,0,0-2.65,0c-.32,0-.38-.07-.38-.35,0-1.43,0-2.86,0-4.3,0-.36-.11-.46-.47-.46Z"/><path d="M31.64,37.93A8.38,8.38,0,1,1,40,29.58,8.39,8.39,0,0,1,31.64,37.93Zm5.79-11-.19-.21c-.57-.58-1.15-1.13-1.71-1.72-.25-.27-.39-.25-.64,0-1.52,1.54-3.06,3.06-4.58,4.6-.25.25-.39.24-.62,0-.7-.73-1.42-1.42-2.12-2.14-.16-.16-.26-.21-.44,0-.62.64-1.25,1.26-1.88,1.88-.17.17-.16.27,0,.44l4.5,4.5c.18.18.28.17.44,0l7.08-7.08A.35.35,0,0,0,37.43,27Z"/><path d="M24.94,20.29l-1.18,1.07c-.39.35-.79.72-1.2,1.06a.48.48,0,0,0-.17.57c.21.88.4,1.75.59,2.63a.82.82,0,0,1,0,.47,3.82,3.82,0,0,1-.82-.45c-.64-.39-1.28-.77-1.9-1.17a.54.54,0,0,0-.67,0c-.8.51-1.62,1-2.43,1.49-.08.05-.18.17-.27.09s0-.19,0-.29c.19-.88.35-1.76.59-2.63a.76.76,0,0,0-.31-.89c-.76-.64-1.49-1.3-2.26-2a1.6,1.6,0,0,1,.74-.16c.77-.08,1.53-.13,2.3-.17a.74.74,0,0,0,.75-.53c.29-.78.64-1.54,1-2.3a.84.84,0,0,1,.29-.46c.34.8.73,1.56,1,2.37a1.2,1.2,0,0,0,1.32.94,24.39,24.39,0,0,1,2.55.23Z"/></svg>