<svg id="Capa_1" data-name="Capa 1" xmlns="http://www.w3.org/2000/svg" viewBox="0 0 44.99 44.99"><path d="M21.83,36H6.76c-.56,0-.56,0-.56-.55v-2c0-.54,0-.54.57-.54H8.68c.52,0,.52,0,.52-.52V23c0-.52,0-.53.5-.6,1-.14,2.09-.28,3.13-.4.36,0,.48-.17.48-.54,0-3.63,0-7.27,0-10.9a.57.57,0,0,1,.49-.67c3.52-1,7-2,10.54-3a.75.75,0,0,1,.51,0c3.15,1.3,6.3,2.61,9.46,3.9a.6.6,0,0,1,.41.66V32.36c0,.6,0,.6.61.6h1.81c.26,0,.37.08.37.36,0,.78,0,1.57,0,2.36,0,.28-.12.35-.38.35H21.83Zm2-15.21V9.06c0-.43,0-.45-.4-.34-2.7.77-5.4,1.55-8.11,2.31a.52.52,0,0,0-.44.6q0,5.53,0,11.07c0,.48,0,.49-.47.55-1.09.14-2.17.29-3.27.42-.28,0-.36.15-.36.42,0,2.81,0,5.62,0,8.43,0,.33.09.44.43.44h12c.56,0,.56,0,.56-.55Zm2.37-8.38c0,.25,0,.5,0,.76a.3.3,0,0,0,.28.36c.32.06.63.14.95.22,1.73.4,3.47.8,5.2,1.22.3.07.36,0,.34-.29a11.7,11.7,0,0,1,0-1.18.39.39,0,0,0-.34-.44l-6.14-1.61c-.19-.05-.26,0-.26.19S26.15,12.18,26.15,12.44ZM32.87,25.8c0-.14,0-.27,0-.4s0-.32-.29-.34c-2-.17-4.1-.34-6.14-.53-.26,0-.33.07-.33.31,0,.4,0,.8,0,1.21s0,.56.57.58l2,.1,3.94.25c.21,0,.26-.07.25-.26S32.89,26.1,32.87,25.8Zm.05-4.05h0a.74.74,0,0,1,0-.21c.06-.32-.06-.44-.39-.47-.84-.1-1.67-.24-2.5-.36l-3.53-.52c-.23,0-.33,0-.32.26,0,.49,0,1,0,1.46,0,.25.11.34.35.36s.69.07,1,.11l5.12.6c.21,0,.27,0,.26-.23S32.92,22.08,32.92,21.75ZM26.15,16.8c0,.26,0,.51,0,.77s.07.3.29.34L32.63,19c.2,0,.3,0,.29-.24,0-.4-.05-.81,0-1.21s-.07-.41-.35-.46l-6.06-1.22c-.24,0-.35,0-.33.25S26.15,16.57,26.15,16.8Zm3.41,14.14h3.05c.24,0,.34-.05.3-.32a3.83,3.83,0,0,1,0-1.17c0-.29-.07-.36-.35-.38-1-.09-2.08,0-3.12-.1s-2-.06-2.95-.09c-.25,0-.36.08-.35.34,0,.44,0,.88,0,1.31s.12.42.42.42C27.57,30.93,28.56,30.94,29.56,30.94Z"/><path d="M22.55,12.59c0,1.07,0,1.07-1,1.23-.72.1-.72.1-.71-.63v-1c0-.18.05-.31.25-.35l1.23-.23c.19,0,.28,0,.28.23S22.55,12.33,22.55,12.59Z"/><path d="M22.56,17c0,.21,0,.42,0,.62s-.09.45-.4.48-.71.07-1.06.13-.3-.06-.3-.27V16.45a.26.26,0,0,1,.24-.29L22.3,16c.19,0,.25.08.25.24V17Z"/><path d="M22.55,21.4c0,1.07,0,1.08-1.05,1.15-.79.05-.69.12-.7-.64,0-.35,0-.71,0-1.07a.3.3,0,0,1,.29-.35c.42,0,.83-.07,1.24-.12.18,0,.22.09.22.23Z"/><path d="M22.56,25.83c0,1,0,1-1,1.09-.72,0-.72,0-.72-.68,0-.35,0-.7,0-1a.31.31,0,0,1,.34-.37c.36,0,.72,0,1.07-.07s.36.1.35.35S22.56,25.59,22.56,25.83Z"/><path d="M22.56,30.2c0,.22,0,.44,0,.66s-.09.41-.37.4h-1.1c-.21,0-.29-.11-.29-.3V29.49c0-.17.06-.28.26-.29.38,0,.76,0,1.14-.06s.37.1.36.37S22.56,30,22.56,30.2Z"/><path d="M19.27,13.19c0,1,0,1-1,1.18-.69.1-.69.1-.69-.61,0-.32,0-.65,0-1a.33.33,0,0,1,.31-.38L19,12.2c.2,0,.29,0,.28.23Z"/><path d="M17.61,17.64c0-.94,0-.95.92-1.1.75-.12.75-.29.75.62,0,.33,0,.67,0,1a.29.29,0,0,1-.27.34l-1.16.16c-.19,0-.24-.1-.24-.26Z"/><path d="M19.27,21.72c0,1,0,1-1,1.11-.67.06-.67.06-.67-.6,0-.35,0-.69,0-1a.31.31,0,0,1,.32-.37l1.1-.1c.19,0,.25.07.25.24S19.27,21.46,19.27,21.72Z"/><path d="M19.27,26v.76c0,.18-.06.29-.25.29L18,27.07c-.23,0-.35-.06-.35-.31q0-.71,0-1.41c0-.17,0-.29.25-.31L18.92,25c.27,0,.37.1.36.36s0,.42,0,.62Z"/><path d="M19.28,30.29c0,.25.13.65-.07.87s-.61.07-.93.08c-.68,0-.68,0-.68-.69,0-.32,0-.65,0-1s.06-.31.28-.31L19,29.21c.23,0,.34.08.33.32S19.28,30,19.28,30.29Z"/><path d="M16.09,26.16v.73c0,.15-.06.24-.22.25l-1,.06c-.17,0-.25-.05-.26-.24,0-.46,0-.92,0-1.38,0-.23.08-.34.32-.34s.6,0,.9-.06.33.09.33.32,0,.44,0,.66Z"/><path d="M16.09,30.29V31c0,.18-.05.29-.26.28l-1,0c-.13,0-.23,0-.23-.19,0-.46,0-.92,0-1.38,0-.25.11-.33.34-.37C16,29.12,16.1,29.19,16.09,30.29Z"/><path d="M13.17,26.32c0,.93,0,.93-.91,1l-.27,0c-.2,0-.29-.06-.29-.25V25.68A.26.26,0,0,1,12,25.4l1,0c.19,0,.22.09.22.23Z"/><path d="M13.17,30.34V31c0,.15-.06.24-.23.24l-1,0c-.19,0-.28-.09-.28-.27V29.66c0-.2.09-.31.29-.31h.9c.19,0,.28.08.28.26Z"/></svg>