<svg id="Capa_1" data-name="Capa 1" xmlns="http://www.w3.org/2000/svg" viewBox="0 0 44.99 44.99"><path d="M7.1,30.74V13.3c0-.08.07-.16.1-.25A2.79,2.79,0,0,1,10,11H27.65a2.86,2.86,0,0,1,2.68,2,6,6,0,0,1,.16,1.79c0,.42,0,.43.39.3l3.94-1.32a2,2,0,0,1,2.67,1.78q0,6.53,0,13.05a2,2,0,0,1-2.66,1.76c-1.38-.56-2.82-.94-4.23-1.45-.18-.07-.23,0-.22.17v1a2.87,2.87,0,0,1-3,3H9.89a2.78,2.78,0,0,1-1.73-.61A3.13,3.13,0,0,1,7.1,30.74Zm19.25-4.09h0c0-.8,0-1.6,0-2.4a.91.91,0,0,0-1-1q-1.48,0-3,0a1,1,0,0,0-.9.43.42.42,0,0,1-.56.21,6.33,6.33,0,0,1-4.47-4.2c-.07-.22-.06-.34.21-.4a.89.89,0,0,0,.69-.86c0-1.13,0-2.25,0-3.38a.89.89,0,0,0-.88-.87h-5a.62.62,0,0,0-.68.68,12.34,12.34,0,0,0,.34,3.21A15.21,15.21,0,0,0,25.52,29.88c.61,0,.83-.2.83-.8Z"/></svg>