<svg id="Capa_1" data-name="Capa 1" xmlns="http://www.w3.org/2000/svg" viewBox="0 0 44.99 44.99"><path d="M24.68,21.3a7.22,7.22,0,0,1-1.94,5.12,4.27,4.27,0,0,1-2,1.18,3,3,0,0,1-2.4-.52,5.4,5.4,0,0,1-2.23-2.75,7.25,7.25,0,0,1,.13-6.11,4.08,4.08,0,0,1,4-2.45,4.11,4.11,0,0,1,3.88,2.56A6.75,6.75,0,0,1,24.68,21.3Z"/><path d="M5.83,20.56a5.69,5.69,0,0,1,.69-3,3.47,3.47,0,0,1,3.34-1.81A3.43,3.43,0,0,1,13.08,18a6.15,6.15,0,0,1-.78,6.33,3.84,3.84,0,0,1-1.77,1.31,2.61,2.61,0,0,1-2.69-.59A5.5,5.5,0,0,1,5.9,21.43,5.08,5.08,0,0,1,5.83,20.56Z"/><path d="M34.39,20.76A6,6,0,0,1,33,24.5a3.75,3.75,0,0,1-2,1.28,2.2,2.2,0,0,1-1.47-.19,4.78,4.78,0,0,1-2.6-3.21,6,6,0,0,1,.4-4.68,3.47,3.47,0,0,1,3.43-1.93A3.53,3.53,0,0,1,34,18.18,6.3,6.3,0,0,1,34.39,20.76Z"/><path d="M16.08,34.14c-1.56,0-3.11,0-4.66,0-.54,0-.67-.11-.66-.64a8.66,8.66,0,0,1,.3-2.43,1.58,1.58,0,0,1,1.14-1.16,10.45,10.45,0,0,0,4-2.13c.36-.3.49-.28.87,0a4.8,4.8,0,0,0,6,0c.38-.27.49-.27.87,0s.51.41.78.6.18.23,0,.32a5.81,5.81,0,0,0-3.62,5.08c0,.32-.16.36-.41.35Z"/><path d="M22.2,34.08a4.72,4.72,0,1,1,4.69,4.76A4.73,4.73,0,0,1,22.2,34.08Zm7.5-1.4a.74.74,0,0,0-.71-.74,1,1,0,0,0-.73.38c-.64.64-1.28,1.26-1.9,1.91-.21.22-.35.19-.52,0s-.28-.28-.42-.42a.75.75,0,0,0-1.11,0,.76.76,0,0,0,.07,1.08L25.54,36a.73.73,0,0,0,1.13,0c.94-.92,1.86-1.85,2.79-2.78A.74.74,0,0,0,29.7,32.68Z"/><path d="M5.91,31.29H2.33c-.47,0-.59-.13-.55-.6A14.78,14.78,0,0,1,2,28.93a1.49,1.49,0,0,1,1.16-1.28A7.75,7.75,0,0,0,6.34,26c.36-.3.49-.29.87,0a4,4,0,0,0,3.82.62,4.56,4.56,0,0,0,1.2-.67.51.51,0,0,1,.71,0,10.44,10.44,0,0,0,2,1.31c.26.12.08.21,0,.3a7.35,7.35,0,0,1-2.05,1.09l-1,.31a2.56,2.56,0,0,0-1.87,2,.48.48,0,0,1-.56.43C8.28,31.27,7.09,31.29,5.91,31.29Z"/><path d="M35.1,31.29H32.31a.47.47,0,0,1-.46-.24A5.71,5.71,0,0,0,27,28.29a2.75,2.75,0,0,1-1.44-.64c-.48-.32-.56-.3,0-.6A8.45,8.45,0,0,0,27.12,26c.43-.34.53-.35,1,0A4,4,0,0,0,33,26c.39-.29.52-.29.89,0A7.73,7.73,0,0,0,37,27.63,1.55,1.55,0,0,1,38.28,29c.1.6.12,1.2.17,1.8,0,.37-.11.49-.49.5Z"/></svg>