<svg id="Capa_1" data-name="Capa 1" xmlns="http://www.w3.org/2000/svg" viewBox="0 0 44.99 44.99"><path d="M21.38,22.75h-.51c-.07,0-.1,0-.11-.1a2.54,2.54,0,0,1,0-.39c0-.17,0-.17-.16-.21a3.41,3.41,0,0,1-1.07-.42,4.18,4.18,0,0,1-.69-.57s0-.09,0-.14c.26-.22.53-.43.8-.63a.13.13,0,0,1,.18,0,2,2,0,0,0,.94.5,2.78,2.78,0,0,0,1.8-.15,1,1,0,0,0,.61-1.14.78.78,0,0,0-.35-.54,2.71,2.71,0,0,0-.81-.33c-.43-.13-.88-.18-1.32-.29a4.93,4.93,0,0,1-1.35-.53,2.12,2.12,0,0,1-.89-2.56,2.21,2.21,0,0,1,.91-1.15,3.42,3.42,0,0,1,1.28-.48c.11,0,.13-.06.12-.17a2.51,2.51,0,0,1,0-.39c0-.07,0-.1.12-.1h1c.07,0,.11,0,.11.1s0,.29,0,.43a.13.13,0,0,0,.12.15,3.62,3.62,0,0,1,1.17.48,4.54,4.54,0,0,1,.63.53.09.09,0,0,1,0,.14c-.27.22-.53.42-.81.62a.13.13,0,0,1-.18,0l-.25-.21a2.18,2.18,0,0,0-1.1-.36,2.65,2.65,0,0,0-1.36.2,1,1,0,0,0-.58,1.34,1,1,0,0,0,.38.4,3,3,0,0,0,.83.32c.46.12.93.17,1.39.3a3.71,3.71,0,0,1,1.38.64,2,2,0,0,1,.81,1.7A2.22,2.22,0,0,1,23,21.8a3.64,3.64,0,0,1-.9.29c-.1,0-.12.05-.12.14v.39c0,.09,0,.13-.12.13S21.55,22.75,21.38,22.75Z"/><path d="M32.23,10.35a10.8,10.8,0,0,1-.14,1.32,1,1,0,0,0,.56,1.06c.38.22.76.45,1.11.7a1.55,1.55,0,0,1,.48,2.25c-.08.14-.16.28-.25.42s-.29.47-.45.7a1,1,0,0,0,0,1.17,14.53,14.53,0,0,1,.79,1.3,1.49,1.49,0,0,1-.5,2.06c-.18.13-.38.25-.57.37l-.72.45a.88.88,0,0,0-.43.85c0,.53.15,1.05.14,1.58a1.51,1.51,0,0,1-1.46,1.71c-.48.08-1,.13-1.45.18a.8.8,0,0,0-.69.51c-.14.37-.27.75-.4,1.13l-.09.25a1.61,1.61,0,0,1-2.26,1.05L24.7,29a.93.93,0,0,0-1.06.25,7.27,7.27,0,0,1-1.31,1.23,1.5,1.5,0,0,1-1.74,0,8.1,8.1,0,0,1-1.24-1.17A.92.92,0,0,0,18.29,29c-.37.13-.75.27-1.13.39a2.61,2.61,0,0,1-.55.14,1.47,1.47,0,0,1-1.71-1,8.39,8.39,0,0,1-.4-1.13,1.16,1.16,0,0,0-1.21-.94,8.22,8.22,0,0,1-1.1-.12,1.52,1.52,0,0,1-1.45-1.69c0-.54.13-1.07.15-1.61a.86.86,0,0,0-.43-.83c-.4-.26-.81-.5-1.21-.77a1.55,1.55,0,0,1-.52-2.26c.23-.39.47-.77.72-1.15a1,1,0,0,0,0-1.2,14.44,14.44,0,0,1-.77-1.25,1.51,1.51,0,0,1,.43-2,12.55,12.55,0,0,1,1.33-.86.94.94,0,0,0,.47-.9c0-.55-.16-1.09-.15-1.64A1.48,1.48,0,0,1,12,8.54a8.62,8.62,0,0,1,1.42-.18,1,1,0,0,0,1.05-.81A7.92,7.92,0,0,1,15,6.14a1.5,1.5,0,0,1,1.76-.85,10.27,10.27,0,0,1,1.51.5,1,1,0,0,0,1.13-.27l.79-.79a1.7,1.7,0,0,1,2.77.1,7,7,0,0,0,.92.89.68.68,0,0,0,.68.12c.35-.12.71-.25,1.07-.36a4.43,4.43,0,0,1,.69-.19A1.44,1.44,0,0,1,28,6.08a7.22,7.22,0,0,1,.53,1.43,1.08,1.08,0,0,0,1.11.86,9.17,9.17,0,0,1,1,.11A1.58,1.58,0,0,1,32.23,10.35Zm-1,.1c0-.72-.1-.86-.65-.94l-1.1-.12a2,2,0,0,1-1.88-1.46c-.13-.39-.26-.8-.42-1.18s-.38-.54-.85-.4-.9.31-1.36.46A1.8,1.8,0,0,1,23,6.35l-.43-.42a6.64,6.64,0,0,0-.72-.68.5.5,0,0,0-.7,0,11.69,11.69,0,0,0-1.07,1A1.87,1.87,0,0,1,18,6.79c-.39-.14-.78-.29-1.18-.41-.59-.19-.78-.1-1,.49-.13.34-.24.69-.35,1a2,2,0,0,1-2,1.48c-.36,0-.73.07-1.1.12s-.55.23-.56.67a6.51,6.51,0,0,0,.1,1,2.07,2.07,0,0,1-1.18,2.54c-.32.2-.63.39-.93.61a.5.5,0,0,0-.18.75,3.91,3.91,0,0,0,.26.44c.2.32.42.63.6,1a1.86,1.86,0,0,1,0,1.83c-.24.45-.55.85-.8,1.3s-.21.63.18.92a12.48,12.48,0,0,0,1.09.69,1.83,1.83,0,0,1,1,1.83c0,.5-.14,1-.14,1.49s.07.64.61.74c.31,0,.63.07.95.1A2,2,0,0,1,15.48,27c.11.32.21.64.34,1,.22.52.38.58.93.43s1-.39,1.48-.5a1.81,1.81,0,0,1,1.62.39c.43.35.77.79,1.19,1.14s.51.29.87,0a5.5,5.5,0,0,0,.8-.8,2.12,2.12,0,0,1,2.58-.59,8.29,8.29,0,0,0,1,.35c.48.15.68.06.86-.41s.33-.92.5-1.38a1.82,1.82,0,0,1,1.63-1.22,11.72,11.72,0,0,0,1.45-.18c.37-.09.46-.21.47-.58a6.09,6.09,0,0,0-.1-1.13,2,2,0,0,1,1.14-2.43c.3-.18.61-.37.91-.58s.43-.47.19-.9-.62-.94-.86-1.44a1.75,1.75,0,0,1,0-1.59c.23-.47.56-.87.81-1.33s.29-.73-.27-1.1l-1.18-.76a1.71,1.71,0,0,1-.78-1.53C31.06,11.35,31.17,10.83,31.19,10.45Z"/><path d="M10.54,36.33a25.52,25.52,0,0,1,2.47-2c.31-.22.63-.43,1-.63a.7.7,0,0,1,1.12.28A22.06,22.06,0,0,0,17,37a.49.49,0,0,0,.25.24l.21-1a20.78,20.78,0,0,1,2-5.56c.16-.3.18-.3.43-.08.53.48.52.47.21,1.12A20.25,20.25,0,0,0,18.19,38a.78.78,0,0,1-.47.74.66.66,0,0,1-.76-.22,20.64,20.64,0,0,1-1.87-2.48c-.22-.35-.43-.69-.64-1-.11-.19-.22-.22-.4-.09a24.91,24.91,0,0,0-2.76,2.15c-.24.21-.47.43-.7.66a.68.68,0,0,1-.81.18.71.71,0,0,1-.4-.77,31,31,0,0,1,.88-4.37,30.14,30.14,0,0,1,2.1-5.41c.08-.16.12-.41.32-.43a1.92,1.92,0,0,1,.89.1c.15.05,0,.16,0,.24-.42.8-.81,1.61-1.16,2.44A28.69,28.69,0,0,0,10.54,36.33Z"/><path d="M25.79,37.19c.2-.26.41-.52.6-.79a21.81,21.81,0,0,0,1.48-2.33c.3-.55.66-.64,1.2-.3a22.52,22.52,0,0,1,3.22,2.44l.13.09a23.37,23.37,0,0,0-.55-2.72,28,28,0,0,0-2.39-6.16c-.2-.39-.17-.44.27-.48.65-.05.64-.05.94.54a29.6,29.6,0,0,1,2.64,7.93c.1.55.18,1.11.25,1.66a.72.72,0,0,1-.38.83.71.71,0,0,1-.86-.23,25.22,25.22,0,0,0-3.46-2.8c-.22-.14-.28,0-.36.14a21.05,21.05,0,0,1-1.94,2.85l-.53.64a.68.68,0,0,1-1.24-.35,20.29,20.29,0,0,0-.6-3,21,21,0,0,0-1.52-3.9c-.12-.22-.12-.37.11-.49a.18.18,0,0,0,.07-.05c.51-.41.51-.4.81.2a21.8,21.8,0,0,1,2,6.09C25.7,37.07,25.68,37.14,25.79,37.19Z"/><path d="M21.48,8.05a9.35,9.35,0,1,1-9.35,9.33A9.33,9.33,0,0,1,21.48,8.05Zm0,1a8.31,8.31,0,1,0,8.3,8.35A8.33,8.33,0,0,0,21.51,9.09Z"/></svg>