<svg id="Capa_1" data-name="Capa 1" xmlns="http://www.w3.org/2000/svg" viewBox="0 0 44.99 44.99"><path d="M32.93,36.75H13.78c-.11,0-.13,0-.13-.13V34.54l.21,0a.36.36,0,0,1-.13-.45c.08-.18.25-.2.43-.2s.57,0,.85,0,.29,0,.29-.29V10.37c0-.25,0-.25.25-.25H31c.26,0,.26,0,.26.27V33.67c0,.2,0,.2.2.2h1.06a.35.35,0,0,1,.36.43.45.45,0,0,1-.17.23c.19,0,.21.07.21.19,0,.34,0,.67,0,1S32.94,36.41,32.93,36.75Zm-7.62-5.32V29.16c0-.11,0-.15-.15-.15H23.68c-.18,0-.19,0-.19.19v4.49c0,.17,0,.18.19.18H25.1c.2,0,.21,0,.21-.21Zm-2.18,0c0-.76,0-1.52,0-2.28,0-.13-.05-.17-.18-.17H21.48c-.12,0-.18,0-.18.17q0,2.27,0,4.53c0,.12.05.17.18.16h1.43c.21,0,.22,0,.22-.21Zm4-5.74v1.06c0,.11,0,.15.15.15h2.08c.11,0,.15,0,.15-.16V24.68c0-.12,0-.16-.16-.16-.69,0-1.38,0-2.06,0-.12,0-.17,0-.16.16Zm-3.37,0c0,.35,0,.71,0,1.06,0,.11,0,.16.15.16H26c.11,0,.15,0,.15-.15V24.67c0-.11-.05-.15-.16-.15-.69,0-1.38,0-2.07,0-.12,0-.16,0-.16.16C23.8,25,23.79,25.37,23.79,25.71Zm-3.36,0c0,.35,0,.71,0,1.06,0,.11,0,.16.15.16h2.09c.11,0,.15,0,.15-.15V24.67c0-.11-.05-.15-.16-.15-.69,0-1.38,0-2.08,0-.11,0-.15,0-.15.16C20.44,25,20.43,25.37,20.43,25.71Zm-2.16,1.22h1c.12,0,.16,0,.16-.16q0-1.05,0-2.1c0-.11,0-.15-.16-.15q-1,0-2.07,0c-.12,0-.16,0-.16.16,0,.69,0,1.39,0,2.09,0,.12,0,.16.16.16Zm2.16-4.58c0,.33,0,.67,0,1,0,.14,0,.19.18.19h2c.13,0,.18,0,.18-.18V21.3c0-.12,0-.17-.16-.17H20.59c-.12,0-.16,0-.16.16C20.44,21.64,20.43,22,20.43,22.35Zm6.73,0c0,.33,0,.67,0,1,0,.14,0,.18.17.18h2.05c.13,0,.17,0,.17-.17V21.29c0-.11,0-.16-.16-.16H27.32c-.13,0-.17.05-.16.17Zm-1,0V21.29c0-.11,0-.16-.15-.16H23.94c-.11,0-.15,0-.15.15,0,.7,0,1.4,0,2.11,0,.1,0,.15.15.14H26c.11,0,.15,0,.15-.15Zm-9.11,0c0,.35,0,.71,0,1.06,0,.1,0,.15.14.15H19.3c.11,0,.16,0,.16-.14q0-1,0-2.1c0-.12-.05-.16-.17-.16H17.24c-.13,0-.17,0-.17.17C17.08,21.64,17.07,22,17.07,22.33Zm0-6.8c0,.34,0,.69,0,1,0,.12,0,.17.17.17H19.3c.11,0,.16,0,.16-.15,0-.69,0-1.38,0-2.08,0-.12-.05-.16-.17-.16H17.24c-.13,0-.17.05-.17.18C17.08,14.86,17.07,15.19,17.07,15.53Zm4.56,1.2h1c.12,0,.16,0,.16-.16V14.51c0-.12,0-.17-.16-.17H20.59c-.11,0-.16.05-.16.17,0,.68,0,1.37,0,2.06,0,.12,0,.16.16.16Zm3.35,0h1c.13,0,.18,0,.18-.17v-2c0-.13,0-.18-.17-.18H24c-.13,0-.18,0-.18.18q0,1,0,2c0,.12,0,.18.18.17C24.3,16.72,24.64,16.73,25,16.73Zm3.37,0h1c.12,0,.16,0,.16-.16V14.51c0-.12,0-.17-.16-.17H27.32c-.12,0-.16,0-.16.16v2.07c0,.13.05.16.17.16Zm-8.89,2.21c0-.34,0-.69,0-1,0-.12,0-.16-.16-.16H17.23c-.12,0-.16,0-.16.16q0,1,0,2.07a.14.14,0,0,0,.16.16H19.3c.12,0,.16-.05.16-.17C19.45,19.62,19.46,19.28,19.46,18.94Zm3.36,0v-1c0-.12,0-.16-.16-.16H20.59c-.12,0-.16,0-.16.16q0,1,0,2.07a.14.14,0,0,0,.16.16h2.07c.12,0,.16-.05.16-.17Zm3.36,0c0-.34,0-.67,0-1,0-.12,0-.18-.17-.17H24c-.13,0-.17,0-.17.17,0,.68,0,1.36,0,2.05,0,.12,0,.17.17.17H26c.12,0,.16-.05.16-.17Zm1,0v1c0,.12,0,.17.15.17h2.07c.12,0,.16-.05.16-.16V17.9c0-.12,0-.16-.16-.16H27.32c-.12,0-.17,0-.16.16ZM22.58,13a.24.24,0,0,0,.16-.07l.46-.34a.14.14,0,0,1,.21,0l.49.36S24,13,24,13c-.07-.21-.13-.42-.21-.63a.2.2,0,0,1,.09-.28c.19-.12.37-.26.55-.4v0h-.51c-.4,0-.32.05-.45-.32-.06-.17-.11-.34-.17-.52l0,0c-.06.17-.12.34-.17.51-.12.34-.06.29-.43.3h-.53v0l.56.41a.19.19,0,0,1,.09.25C22.72,12.53,22.66,12.75,22.58,13Zm3.09-.28.43-.31a.14.14,0,0,1,.19,0l.4.29a1.3,1.3,0,0,0-.11-.41.22.22,0,0,1,.1-.31A1.3,1.3,0,0,0,27,11.7h-.46a.18.18,0,0,1-.2-.15c0-.15-.09-.29-.14-.44a2,2,0,0,0-.16.42c0,.13-.1.17-.23.17a1.41,1.41,0,0,0-.45,0l.39.28a.16.16,0,0,1,.07.21C25.77,12.36,25.73,12.51,25.67,12.7Zm-4.76,0,0,0c0-.12-.07-.23-.11-.34-.09-.28-.08-.22.12-.38a1.23,1.23,0,0,0,.29-.24h-.42a.2.2,0,0,1-.25-.18c0-.14-.09-.27-.13-.4a1.67,1.67,0,0,0-.16.4.2.2,0,0,1-.23.18,1.4,1.4,0,0,0-.45,0c.14.1.25.19.37.26a.19.19,0,0,1,.08.26c-.06.14-.09.28-.14.42a1.53,1.53,0,0,0,.39-.25.17.17,0,0,1,.25,0C20.66,12.51,20.79,12.59,20.91,12.68Zm8.4-.95h-.37a.16.16,0,0,1-.19-.13c0-.1-.07-.2-.11-.33a1.48,1.48,0,0,0-.09.28c0,.15-.12.2-.27.19a.43.43,0,0,0-.27,0l.27.21a.13.13,0,0,1,.07.18c0,.11-.07.22-.11.34a.4.4,0,0,0,.18-.11c.26-.18.18-.17.43,0a.56.56,0,0,0,.19.11c0-.11-.06-.21-.1-.29a.18.18,0,0,1,.08-.26A2.86,2.86,0,0,0,29.31,11.73Zm-10.93.77c-.05-.13-.07-.24-.11-.35a.15.15,0,0,1,.06-.19,3.46,3.46,0,0,0,.31-.23h-.33a.2.2,0,0,1-.24-.18,1.55,1.55,0,0,0-.09-.29c-.05.13-.09.23-.12.33s-.08.14-.18.13h-.37l.29.22a.16.16,0,0,1,.08.23,2.42,2.42,0,0,0-.1.32l.08-.05c.1-.07.19-.19.31-.19s.21.13.32.19ZM16.7,35.76c0-.16-.08-.25-.2-.26a.25.25,0,0,0-.22.25.27.27,0,0,0,.21.27A.25.25,0,0,0,16.7,35.76Z"/><path d="M16.7,35.76a.25.25,0,0,1-.21.26.27.27,0,0,1-.21-.27.25.25,0,0,1,.22-.25C16.62,35.51,16.7,35.6,16.7,35.76Z"/><path d="M19.06,8.35V9.46c0,.21,0,.21-.21.21h-.53c-.1,0-.14,0-.13-.14s0-.47,0-.7,0-.16-.15-.16h-.61c-.1,0-.14,0-.14.14v.7c0,.11,0,.16-.15.16h-.51c-.22,0-.22,0-.22-.23V8.62c0-.47,0-.94,0-1.42,0-.18,0-.19.19-.19h.55c.1,0,.14,0,.14.14s0,.44,0,.66.05.16.16.16H18c.12,0,.16,0,.16-.16s0-.43,0-.64,0-.17.15-.16h.57c.11,0,.15,0,.15.15C19.05,7.56,19.06,8,19.06,8.35Z"/><path d="M19.48,8.34A1.29,1.29,0,0,1,20,7.22a1.34,1.34,0,0,1,.6-.23,2.6,2.6,0,0,1,.88,0,1.17,1.17,0,0,1,.88,1.13,2.24,2.24,0,0,1,0,.52,1.13,1.13,0,0,1-.92,1,2,2,0,0,1-.94,0,1.19,1.19,0,0,1-1-1.17Zm2,0h0V8.09a.5.5,0,0,0-.54-.46.48.48,0,0,0-.51.46,2.17,2.17,0,0,0,0,.51.48.48,0,0,0,.36.44.53.53,0,0,0,.69-.55Z"/><path d="M25.41,8.33V7.18c0-.13,0-.17.17-.17h2c.12,0,.17,0,.16.17a1.93,1.93,0,0,0,0,.34c0,.12,0,.16-.16.16H26.48c-.11,0-.18,0-.19.15s.07.17.19.17h.85c.13,0,.19,0,.18.17v.31c0,.12,0,.17-.16.17h-.89c-.15,0-.16,0-.16.2s0,.18.17.18h1.1c.13,0,.18.05.17.18a1.82,1.82,0,0,0,0,.33c0,.11,0,.15-.15.15h-2c-.19,0-.2,0-.2-.19Z"/><path d="M23.77,7h1.12c.13,0,.19,0,.18.17a2.29,2.29,0,0,0,0,.37c0,.13-.06.17-.18.16h-.5c-.17,0-.18,0-.18.18V9.46c0,.21,0,.21-.21.21h-.51c-.14,0-.17-.07-.17-.18V8c0-.24,0-.24-.24-.24H22.6c-.1,0-.14,0-.13-.13V7.16c0-.12.05-.15.16-.15Z"/><path d="M28.16,8.32c0-.38,0-.76,0-1.14,0-.13,0-.18.17-.17h.52c.18,0,.2,0,.2.19V8.73c0,.23,0,.23.23.23h.95c.11,0,.16,0,.15.16v.39c0,.12,0,.16-.15.16H28.32c-.12,0-.16,0-.16-.15C28.17,9.12,28.16,8.72,28.16,8.32Z"/><path d="M18.05,35.75c0-.12.06-.2.16-.2a.19.19,0,0,1,.16.21c0,.12-.06.19-.16.19S18.05,35.88,18.05,35.75Z"/><rect x="13.65" y="33.87" width="19.28" height="2.87" rx="1.33"/></svg>