<svg id="Capa_1" data-name="Capa 1" xmlns="http://www.w3.org/2000/svg" viewBox="0 0 44.99 44.99"><path d="M9.57,20.56l-.27,0c-1.4,0-1.92-.56-1.92-1.94v-.67C7.38,16.64,8,16,9.31,16c.61,0,1.22,0,1.84,0a.54.54,0,0,0,.61-.44c.11-.35.23-.7.37-1.05a2.65,2.65,0,0,1,2.57-1.78H28.05a2.71,2.71,0,0,1,2.63,1.87c.51,1.37.51,1.37,2,1.37H33.8a1.69,1.69,0,0,1,1.66,1.63c0,.39,0,.78,0,1.17a1.59,1.59,0,0,1-1.65,1.72c-.15,0-.37-.08-.46.09s.12.3.23.41a2,2,0,0,1,.54,1.52c0,3.22,0,6.43,0,9.65,0,1.33-.6,1.93-1.95,1.94-.89,0-1.78,0-2.68,0a1.88,1.88,0,0,1-1.77-2.54.37.37,0,0,1,.38-.26c.26,0,.53,0,.79,0s.55.16.52.54.15.59.59.58c.65,0,1.3,0,1.95,0,.3,0,.44-.12.44-.43,0-1.49,0-3,0-4.46,0-.36-.18-.44-.49-.44-1,0-1.94,0-2.9,0a1.6,1.6,0,0,1-1.82-1.3,4.49,4.49,0,0,1-.38-1.39,1.67,1.67,0,0,1,1.74-1.82h3.35c.16,0,.35.05.45-.13s-.08-.3-.16-.44a2.12,2.12,0,0,0-2.1-1.08c-5.92.05-11.83,0-17.75,0a2.08,2.08,0,0,0-1.83,1.26c-.12.35.13.37.37.37h3.18a1.76,1.76,0,0,1,1.81,2.57c-.61,1.84-.76,1.94-2.7,1.94-.74,0-1.49,0-2.23,0-.36,0-.49.14-.49.5,0,1.49,0,3,0,4.46,0,.34.13.47.47.46.7,0,1.41,0,2.12,0,.37,0,.51-.17.47-.51-.06-.52.2-.66.66-.61a2.09,2.09,0,0,0,.5,0c.36,0,.51.14.49.5s0,.44,0,.67a1.52,1.52,0,0,1-1.58,1.58c-1,0-2.08,0-3.13,0a1.59,1.59,0,0,1-1.69-1.62c0-.26,0-.52,0-.78v-8c0-1.1-.2-2.27,1-3.06Zm11.74-1.31H29.9c.28,0,.67.09.47-.45-.45-1.23-.89-2.48-1.34-3.72a1,1,0,0,0-1.07-.7H14.84a1.1,1.1,0,0,0-1.16.83c-.4,1.14-.82,2.28-1.22,3.41-.22.62-.21.63.47.63Zm9.06,5h-1.5c-.14,0-.31,0-.39.14s.35,1,.64,1c.93,0,1.86,0,2.78,0,.49,0,.36-.37.38-.65s0-.52-.4-.51S30.87,24.22,30.37,24.22Zm-18,0c-.5,0-1,0-1.5,0s-.49.21-.48.55,0,.63.47.62c.76,0,1.53,0,2.28,0a.82.82,0,0,0,1-.71c.1-.34.07-.48-.31-.47S12.9,24.22,12.42,24.22ZM10,17.7H9.82c-.4,0-.72,0-.72.56s.33.56.72.55c.16,0,.33,0,.5,0,.53,0,.54-.49.58-.82s-.36-.24-.58-.29Zm22.64,0h0c-.12,0-.23,0-.34,0-.49,0-.53.14-.4.59.21.72.77.48,1.23.52s.47-.18.47-.51,0-.61-.46-.6Z"/><path d="M21.36,30.34H13c-.24,0-.6.12-.68-.22a2.12,2.12,0,0,1,.05-1.36c.08-.16.3-.12.47-.12h17c.4,0,.59.14.56.55v.17c0,1,0,1-1,1Z"/></svg>