<svg id="Capa_1" data-name="Capa 1" xmlns="http://www.w3.org/2000/svg" viewBox="0 0 44.99 44.99"><g id="Layer_2" data-name="Layer 2"><path d="M24.29,33.7l-.66.14a1.06,1.06,0,0,0-.85,1.24,1,1,0,0,0,1.23.84,7.43,7.43,0,0,0,.79-.17,1.06,1.06,0,0,0-.51-2Z"/><path d="M32.11,19.51a1.06,1.06,0,0,0,2-.66c-.08-.26-.17-.51-.27-.76a1.06,1.06,0,0,0-2,.79C32,19.09,32,19.3,32.11,19.51Z"/><path d="M27.73,32.19c-.19.12-.38.24-.58.35A1.07,1.07,0,0,0,26.76,34a1.13,1.13,0,0,0,.31.34,1.07,1.07,0,0,0,1.14.05l.68-.42a1.06,1.06,0,0,0,.3-1.47A1.05,1.05,0,0,0,27.73,32.19Z"/><path d="M34.78,22.47a1.06,1.06,0,1,0-2.11.08c0,.23,0,.45,0,.68a1,1,0,0,0,.45.88,1.1,1.1,0,0,0,.59.2,1.06,1.06,0,0,0,1.08-1C34.79,23,34.79,22.74,34.78,22.47Z"/><path d="M31.94,29.4a1.06,1.06,0,0,0-1.48.22l-.42.52a1,1,0,0,0,.12,1.49.19.19,0,0,0,.07.06,1.06,1.06,0,0,0,1.42-.18c.17-.2.34-.41.5-.62A1.07,1.07,0,0,0,31.94,29.4Z"/><path d="M33.5,25.58a1.05,1.05,0,0,0-1.33.69c-.07.21-.14.43-.22.64a1,1,0,0,0,.38,1.24,1,1,0,0,0,.23.12,1.06,1.06,0,0,0,1.37-.61c.09-.25.18-.5.26-.76A1.06,1.06,0,0,0,33.5,25.58Z"/><path d="M19.67,33.85A11.05,11.05,0,0,1,17,33l0,0q-.3-.13-.6-.3h0c-.36-.2-.71-.42-1.06-.66A11.06,11.06,0,0,1,12.6,16.62a10.86,10.86,0,0,1,2.71-2.7l0,0a11.06,11.06,0,0,1,12.4-.1L26.92,15c-.23.33-.09.57.32.53l3.59-.32a.58.58,0,0,0,.53-.77L30.4,11c-.11-.39-.38-.43-.62-.1L29,12.05a13.09,13.09,0,0,0-9.58-2c-.34.06-.68.13-1,.21h-.05a13,13,0,0,0-7.24,4.85l0,.05-.18.25c-.1.13-.19.27-.28.41l0,0a13.09,13.09,0,0,0-2.09,7.7v0c0,.26,0,.53.07.8v.05c0,.26.07.53.12.8a13,13,0,0,0,3.68,7.08v0h0a13.58,13.58,0,0,0,1.69,1.41,13,13,0,0,0,5.24,2.2,1.06,1.06,0,0,0,.38-2.09Z"/><path d="M21,14.43a.85.85,0,0,0-.86.85v8.54l7.8,4a1,1,0,0,0,.4.1.86.86,0,0,0,.39-1.62l-6.88-3.56V15.28A.85.85,0,0,0,21,14.43Z"/></g></svg>