<svg id="Capa_1" data-name="Capa 1" xmlns="http://www.w3.org/2000/svg" viewBox="0 0 44.99 44.99"><path d="M37.5,22.27a2.24,2.24,0,0,1-.42.54Q28.53,31.35,20,39.9a1.09,1.09,0,0,1-1.73,0c-.8-.84-1.64-1.65-2.46-2.48a1,1,0,0,1,.06-1.66,3,3,0,0,0,.92-3.09,2.9,2.9,0,0,0-2.44-2.29,3,3,0,0,0-2.93,1,1,1,0,0,1-1.55.07c-.9-.88-1.78-1.77-2.66-2.66a1,1,0,0,1,0-1.48L24.52,10A2.61,2.61,0,0,1,25,9.73h.66A3.07,3.07,0,0,1,26,10c.92.91,1.84,1.82,2.74,2.74A.94.94,0,0,1,28.82,14l-.19.29a3.08,3.08,0,0,0,1,4.37,3,3,0,0,0,3.35-.1c.78-.5,1.08-.48,1.74.18L37,21a3.66,3.66,0,0,1,.54.64ZM25.41,26.58c.12-.38-.11-.62-.5-.78a.41.41,0,0,1-.28-.41c0-.36-.24-.45-.54-.22-.07.06-.12.1-.21,0s-.45-.17-.46-.51-.27-.41-.53-.25a.44.44,0,0,1-.64-.3c-.05-.41-.08-.81-.12-1.22a6.6,6.6,0,0,0-.32-1.45c-.08-.21-.19-.43-.44-.44s-.38.23-.47.44a4.37,4.37,0,0,0-.23.86,14.14,14.14,0,0,0-.19,1.72c0,.3-.41.57-.62.44-.37-.22-.5-.15-.57.29a.51.51,0,0,1-.71.34c-.26-.19-.51-.08-.53.26,0,.18,0,.32-.22.38a.73.73,0,0,0-.52.93v.11c0,.48.05.52.49.37l2.28-.8c.22-.08.34-.09.36.21,0,.66.11,1.33.19,2,.06.46.08.46-.33.68l-1,.54c-.25.14-.19.4-.13.59s.25.05.38,0c.35-.11.69-.24,1-.36s.4-.17.61,0a.27.27,0,0,0,.31,0,.36.36,0,0,1,.4,0l1.29.45c.13,0,.28.1.31-.09s.06-.47-.23-.61-.73-.4-1.1-.6A.3.3,0,0,1,22,28.8a15.65,15.65,0,0,0,.22-2.16c0-.32.05-.36.35-.25l2.12.74C25.41,27.37,25.41,27.37,25.41,26.58Zm5.35-1.69a.89.89,0,0,0,.93-.91,1,1,0,0,0-.38-.75L24,15.93a2.09,2.09,0,0,0-.22-.2.88.88,0,0,0-1-.1.86.86,0,0,0-.5.81,1.11,1.11,0,0,0,.42.83c1.94,1.93,3.87,3.87,5.8,5.8.5.49,1,1,1.48,1.48A.92.92,0,0,0,30.76,24.89Z"/></svg>