<?xml version="1.0" encoding="UTF-8" standalone="no"?>
<svg
   xmlns:dc="http://purl.org/dc/elements/1.1/"
   xmlns:cc="http://creativecommons.org/ns#"
   xmlns:rdf="http://www.w3.org/1999/02/22-rdf-syntax-ns#"
   xmlns:svg="http://www.w3.org/2000/svg"
   xmlns="http://www.w3.org/2000/svg"
   xmlns:sodipodi="http://sodipodi.sourceforge.net/DTD/sodipodi-0.dtd"
   xmlns:inkscape="http://www.inkscape.org/namespaces/inkscape"
   id="Layer_1"
   data-name="Layer 1"
   viewBox="0 0 943.21002 299.884"
   version="1.1"
   sodipodi:docname="Marriott International.svg"
   inkscape:version="0.92.2 5c3e80d, 2017-08-06"
   width="560.825245791"
   height="178.308663439">
  <metadata
     id="metadata940">
    <rdf:RDF>
      <cc:Work
         rdf:about="">
        <dc:format>image/svg+xml</dc:format>
        <dc:type
           rdf:resource="http://purl.org/dc/dcmitype/StillImage" />
        <dc:title>MI-rgb</dc:title>
      </cc:Work>
    </rdf:RDF>
  </metadata>
  <sodipodi:namedview
     pagecolor="#ffffff"
     bordercolor="#666666"
     borderopacity="1"
     objecttolerance="10"
     gridtolerance="10"
     guidetolerance="10"
     inkscape:pageopacity="0"
     inkscape:pageshadow="2"
     inkscape:window-width="1680"
     inkscape:window-height="933"
     id="namedview938"
     showgrid="false"
     inkscape:zoom="0.11313708"
     inkscape:cx="2460.9788"
     inkscape:cy="-16.268842"
     inkscape:window-x="0"
     inkscape:window-y="1"
     inkscape:window-maximized="1"
     inkscape:current-layer="g1491" />
  <defs
     id="defs929">
    <style
       id="style927">.cls-1{fill:#978c87;}</style>
  </defs>
  <title
     id="title931">MI-rgb</title>
  <g
     id="g1487"
     transform="translate(0,105.884)">
    <g
       id="g1491"
       transform="translate(36.570368,286.46788)">
      <g
         id="g1501"
         transform="matrix(1.5411926,0,0,1.5457951,-36.570368,-392.32121)"
         style="fill:#000000">
        <path
           class="cls-1"
           d="m 198.9,402.43 v -31.55 h 6.94 v 31.55 z m 42.42,0 L 226,382.38 v 20.06 h -6.85 v -31.56 h 6.4 l 14.78,19.43 v -19.43 h 6.85 v 31.55 z m 30.82,-25.15 v 25.15 h -6.94 v -25.15 h -9.6 v -6.4 h 26.14 v 6.4 z m 18,25.15 v -31.55 h 23.8 v 6.17 H 297 v 6.28 h 14.87 v 6.17 H 297 v 6.75 h 17.13 v 6.17 z m 54.66,0 -6.8,-10.09 h -5.45 v 10.1 h -6.94 V 370.88 H 340 c 7.44,0 11.9,3.92 11.9,10.41 v 0.09 a 9.8,9.8 0 0 1 -6.76,9.78 l 7.71,11.27 z m 0.14,-20.78 c 0,-3 -2.07,-4.51 -5.45,-4.51 h -6.9 v 9.06 h 7 c 3.38,0 5.32,-1.8 5.32,-4.46 z m 40.58,20.78 -15.28,-20.06 v 20.06 h -6.85 v -31.55 h 6.4 l 14.78,19.43 v -19.43 h 6.85 v 31.55 z m 40.5,0 -2.88,-7.08 h -13.37 l -2.88,7.08 h -7.08 l 13.52,-31.78 h 6.4 l 13.52,31.78 z m -9.58,-23.43 -4.19,10.23 h 8.38 z m 35,-1.71 v 25.15 h -6.94 v -25.16 h -9.6 v -6.4 h 26.14 v 6.4 z m 18.74,25.15 v -31.56 h 6.94 v 31.55 z m 34.54,0.54 C 495,403 488,395.72 488,386.75 v -0.09 c 0,-9 7.08,-16.32 16.81,-16.32 9.73,0 16.72,7.26 16.72,16.23 v 0.09 c 0.01,8.97 -7.06,16.34 -16.8,16.34 z m 9.55,-16.32 a 9.59,9.59 0 0 0 -9.55,-9.92 c -5.59,0 -9.47,4.42 -9.47,9.83 v 0.09 a 9.59,9.59 0 0 0 9.55,9.92 c 5.59,0 9.47,-4.42 9.47,-9.83 z M 555,402.43 539.72,382.37 v 20.06 h -6.82 v -31.55 h 6.4 l 14.78,19.43 v -19.43 h 6.85 v 31.55 z m 40.5,0 -2.88,-7.08 h -13.31 l -2.88,7.08 h -7.08 l 13.52,-31.78 h 6.4 l 13.52,31.78 z M 586,379 l -4.19,10.23 h 8.38 z m 24.63,23.44 v -31.56 h 6.94 v 25.24 h 15.73 v 6.31 z"
           transform="translate(-90,-209.02)"
           id="path1497"
           inkscape:connector-curvature="0"
           style="fill:#000000" />
        <path
           class="cls-1"
           d="M 416.74,270.12 A 27.43,27.43 0 0 0 404.82,267 c -8.3,0 -13,6 -14.23,8 v 64.32 h -25.17 v -90.15 h 23.06 l 1.44,9.44 c 1,-1.64 7,-11.38 18.9,-11.38 a 25.5,25.5 0 0 1 7.92,1.37 z m 59.73,-21.52 a 25.51,25.51 0 0 0 -7.92,-1.37 c -11.91,0 -17.87,9.74 -18.9,11.38 l -1.44,-9.44 h -23.06 v 90.16 h 25.17 V 275 c 1.27,-2.05 5.92,-8 14.23,-8 a 27.43,27.43 0 0 1 11.92,3.12 z M 350,275.05 v 64.28 h -23.1 l -1.44,-9.4 c -1.59,1.54 -9,11.34 -24.27,11.34 -14.4,0 -24.34,-11 -24.34,-25.81 0,-31.9 37.62,-36.39 48,-37.44 v -2.56 c 0,-5.22 -4.38,-10.64 -16,-10.64 -12.28,0 -21.74,6.79 -23.44,8 v -18.59 a 71.27,71.27 0 0 1 31.45,-7 C 340,247.21 350,257.78 350,275.05 Z m -25.17,20.59 c -8,0 -22.61,2.75 -22.61,15.37 0,6.4 4.38,11 9.87,11 7.14,0 12.74,-5.12 12.74,-16.65 z m -138.13,-73.2 22.63,48.56 -8.88,19 -37.75,-81 -28.76,13.41 22.61,48.49 c -1.77,3.78 -4.61,9.93 -9.21,19.72 -10.34,22.11 -18.34,28.3 -32.51,28.3 a 35.42,35.42 0 0 1 -11.42,-2.11 L 90,345.55 a 58,58 0 0 0 21.42,4.45 c 16.77,0 29.09,-10.9 39.8,-33.88 l 13.2,-28.3 24,51.54 h 35 l -15.16,-32.5 8.88,-19 24,51.54 h 35 L 215.46,209 Z m 502.53,26.74 v -29.83 l -25.17,11.74 v 18.09 H 656 v 15.68 h 8.07 v 74.48 h 25.17 V 264.85 H 702 v -15.68 z m -203.34,90.16 h 25.17 v -90.17 h -25.17 z m 149.89,-120 -25.17,11.74 v 18.09 h -8.07 v 15.68 h 8.07 v 74.48 h 25.17 v -74.48 h 12.77 v -15.68 h -12.77 z m -39.12,67.49 v 14.83 c 0,21.49 -10.5,39.62 -36.29,39.62 -25.79,0 -36.29,-18 -36.29,-39.62 v -14.82 c 0,-21.58 10.5,-39.62 36.29,-39.62 25.79,0 36.29,18.13 36.29,39.62 z m -25.37,-3.57 c 0,-10.78 -2.62,-18.43 -10.92,-18.43 -8.3,0 -10.92,7.65 -10.92,18.43 v 22 c 0,10.78 2.57,18.43 10.92,18.43 8.35,0 10.92,-7.65 10.92,-18.43 z"
           transform="translate(-90,-209.02)"
           id="path1499"
           inkscape:connector-curvature="0"
           style="fill:#000000" />
      </g>
    </g>
  </g>
</svg>
