<svg id="Capa_1" data-name="Capa 1" xmlns="http://www.w3.org/2000/svg" viewBox="0 0 44.99 44.99"><path d="M22.22,8a7.21,7.21,0,0,1,4.85,4.16,8.28,8.28,0,0,1-2.65,10.3,6.06,6.06,0,0,1-8-.93c-3.37-3.42-3-9.51.76-12.3A8.5,8.5,0,0,1,19.74,8Z"/><path d="M38.87,33.19a53.06,53.06,0,0,1-5,5.13,1.76,1.76,0,0,1-2.75-.06,34,34,0,0,1-2.67-2.83,1.85,1.85,0,0,1,.08-2.52A1.83,1.83,0,0,1,31,32.73a9.17,9.17,0,0,1,.92.84c.71.71.71.72,1.41,0s1.49-1.56,2.3-2.28c1.29-1.15,2.39-1,3.29.46Z"/><path d="M8.13,30.93a3.32,3.32,0,0,1,1.74-3.08c2.18-1.38,4.48-2.54,6.75-3.76a.9.9,0,0,1,.9,0,7.54,7.54,0,0,0,6.77.05,1.32,1.32,0,0,1,1.32.07c1.87,1.05,3.75,2.07,5.63,3.11a4.65,4.65,0,0,1,2.38,2.42,1.75,1.75,0,0,1-1,2.19c-.32.14-.46-.13-.65-.28a3.42,3.42,0,0,0-4-.35,3.22,3.22,0,0,0-1.73,2.53c0,.42-.23.55-.64.56-4.74.09-9.47,0-14.21,0A3.45,3.45,0,0,1,8.13,30.93Z"/></svg>