<svg id="Capa_1" data-name="Capa 1" xmlns="http://www.w3.org/2000/svg" viewBox="0 0 44.99 44.99"><path d="M25.89,38a9.63,9.63,0,0,1-3.59-.93,3.82,3.82,0,0,0-2.78-.17,5.59,5.59,0,0,1-3.14.17,3.71,3.71,0,0,1-2.53-2,7.5,7.5,0,0,1-.7-2.21,3.7,3.7,0,0,1,1.65-3.78,29.66,29.66,0,0,0,5.27-4.8c1.22-1.38,2.75-1.26,3.65.35a21.21,21.21,0,0,0,5.13,5.67C30.53,31.7,31,33,30.36,34.61A4.8,4.8,0,0,1,25.89,38ZM14.7,32.28c0,.13,0,.26,0,.39.21,2.22,1.53,3.23,3.71,2.85a12.73,12.73,0,0,0,1.51-.35,3,3,0,0,1,1.9.06,24.73,24.73,0,0,0,3.54,1.14,3,3,0,0,0,3.31-1.86c.64-1.3.49-1.87-.81-3l-.17-.15a20.48,20.48,0,0,1-5.22-5.79c-.42-.79-.79-.82-1.36-.15a28.16,28.16,0,0,1-5.33,4.84A2.24,2.24,0,0,0,14.7,32.28Z"/><path d="M34.8,21.92a6.54,6.54,0,0,1-2,5c-1.75,1.93-5.54,1.27-6.6-1.12a3,3,0,0,1,0-2.42,8.73,8.73,0,0,1,3.71-4.64A2.93,2.93,0,0,1,33,18.4a3.24,3.24,0,0,1,1.77,3.13C34.79,21.66,34.8,21.79,34.8,21.92Zm-1.59.34c0-.43,0-.63,0-.84C33.16,19.9,32.14,19.3,30.8,20a7,7,0,0,0-3.24,4.18,1.25,1.25,0,0,0,.12,1,2.69,2.69,0,0,0,4,.51A4.75,4.75,0,0,0,33.21,22.26Z"/><path d="M15,13.89a6.08,6.08,0,0,1,2.77-4.52c1.77-1.24,3.59-.5,4,1.62A14.37,14.37,0,0,1,21,17.71,1.92,1.92,0,0,1,18.42,19C16.25,18.53,15,16.84,15,13.89Zm5.33-1.48c0-.34-.06-.7-.13-1.05-.23-1.07-.73-1.27-1.64-.63a4.65,4.65,0,0,0-1.9,2.84c-.41,1.87.29,3.29,1.8,3.81.75.26,1,.13,1.24-.66A30.65,30.65,0,0,0,20.3,12.41Z"/><path d="M30.45,13.52a6.88,6.88,0,0,1-1.27,4A3.6,3.6,0,0,1,27,19a2.54,2.54,0,0,1-3.32-2.32,15,15,0,0,1,.81-6.26,2.3,2.3,0,0,1,3.61-1.2A4.94,4.94,0,0,1,30.45,13.52Zm-5.16,1.85a11.42,11.42,0,0,0,0,1.17,1,1,0,0,0,1.36.93,2.18,2.18,0,0,0,1.07-.61A4.7,4.7,0,0,0,28,11.12c-.35-.44-.77-.84-1.37-.71s-.72.65-.83,1.12A16.58,16.58,0,0,0,25.29,15.37Z"/><path d="M10,22.68a6.77,6.77,0,0,1,1.12-3.89A2.53,2.53,0,0,1,15,18.1,5.83,5.83,0,0,1,17.52,24,3.46,3.46,0,0,1,14,27a4.16,4.16,0,0,1-4-3.61C10,23.14,10,22.91,10,22.68Zm6.06.22a4.49,4.49,0,0,0-2-3.57,1,1,0,0,0-1.63.36,5.79,5.79,0,0,0-.9,3.09,2.62,2.62,0,0,0,2.76,2.64C15.28,25.4,16.08,24.27,16.07,22.9Z"/></svg>