<svg id="Capa_1" data-name="Capa 1" xmlns="http://www.w3.org/2000/svg" viewBox="0 0 44.99 44.99"><path d="M31.49,40.21c-.42-.68-.75-1.4-1.12-2.1q-3-5.73-5.95-11.46c-.15-.29-.3-.58-.44-.87s-.12-.2-.26-.05l-5.65,5.65a.4.4,0,0,0-.11.39c.16,1.4.33,2.8.5,4.19a.34.34,0,0,1-.11.31l-2.08,2.09c-.18.18-.24.07-.32-.09-.85-1.6-1.69-3.21-2.54-4.82a.75.75,0,0,0-.33-.33q-2.4-1.24-4.78-2.51c-.28-.15-.28-.15-.05-.38l2-2a.41.41,0,0,1,.4-.15l2.94.37,1.34.16a.26.26,0,0,0,.25-.11l5.68-5.67c.15-.15.07-.19-.06-.26l-6.16-3.24L6.55,15.09c-.32-.17-.32-.17-.06-.43.86-.86,1.72-1.71,2.57-2.58A.4.4,0,0,1,9.51,12l12.22,3.23,5.11,1.36a.47.47,0,0,0,.54-.14L34.84,9A2.94,2.94,0,0,1,36,8.17,2.05,2.05,0,0,1,38.34,9a2,2,0,0,1-.09,2.36,10.56,10.56,0,0,1-1.08,1.14q-3.48,3.51-7,7A.47.47,0,0,0,30,20c.86,3.28,1.7,6.55,2.55,9.83L34.45,37a.39.39,0,0,1-.12.43l-2.79,2.79Z"/></svg>