<svg id="Capa_1" data-name="Capa 1" xmlns="http://www.w3.org/2000/svg" viewBox="0 0 44.99 44.99"><path d="M24.21,10.42a3,3,0,0,1,2.35,2.86c0,.33.25.36.5.38,1.23.1,2.47,0,3.71.05.77,0,.77,0,.78.76s0,1.41,0,2.11c0,.36-.11.53-.51.55-1.16,0-1.16.05-1.16,1.24,0,4.23,0,8.46,0,12.69a5.33,5.33,0,0,1-.68,2.82,2.92,2.92,0,0,1-2.65,1.53q-4.95,0-9.92,0a3.32,3.32,0,0,1-3.42-3.1,8.53,8.53,0,0,1-.11-1.43q0-6.69,0-13.36c0-.29-.08-.42-.36-.4h-.11c-1.21,0-1.21,0-1.21-1.22,0-.52,0-1,0-1.56s.14-.65.64-.64c1.27,0,2.55,0,3.82,0,.27,0,.53,0,.54-.38a2.93,2.93,0,0,1,2.34-2.91Zm3.87,14.35h0c0-2.32,0-4.65,0-7,0-.48-.13-.68-.66-.68q-5.93,0-11.85,0c-.53,0-.67.19-.66.68,0,4.58,0,9.16,0,13.74a3.24,3.24,0,0,0,0,.44,1.65,1.65,0,0,0,1.9,1.7h9.3a1.66,1.66,0,0,0,1.91-1.75c0-.33,0-.66,0-1Q28.08,27.85,28.08,24.77ZM21.47,13.71c.92,0,1.85,0,2.77,0,.39,0,.53-.14.51-.52,0-.62-.52-1-1.38-1.06-1.25,0-2.51,0-3.77,0a1.56,1.56,0,0,0-1.15.46.91.91,0,0,0-.17.94c.1.29.42.17.64.17C19.77,13.72,20.62,13.71,21.47,13.71Z"/><path d="M16.43,25.34c0-2,0-4,0-5.93,0-.51.11-.74.68-.72,1.22,0,1.13-.14,1.14,1.13V31.3c0,.79,0,.79-.81.79a2.62,2.62,0,0,0-.28,0c-.55.08-.74-.14-.73-.71C16.44,29.37,16.43,27.35,16.43,25.34Z"/><path d="M26.56,25.45c0,2,0,4,0,5.93,0,.51-.11.74-.67.72-1.23-.05-1.14.14-1.14-1.13V19.49c0-.79,0-.79.81-.79.11,0,.22,0,.33,0,.5-.07.68.14.67.65C26.54,21.38,26.56,23.42,26.56,25.45Z"/><path d="M20.62,25.34c0-2,0-4,0-6,0-.5.15-.68.66-.66,1.25,0,1.09-.1,1.09,1.11,0,3.86,0,7.72,0,11.58,0,.56-.15.74-.71.72-1.17-.05-1,.09-1-1.05Z"/></svg>