<svg id="Capa_1" data-name="Capa 1" xmlns="http://www.w3.org/2000/svg" viewBox="0 0 44.99 44.99"><path d="M32.91,15.7c.13-.12.25-.08.36-.08.64,0,1.28,0,1.93,0,.33,0,.42-.11.4-.41s0-.6,0-.9a1.66,1.66,0,0,0-1.82-1.82h-23a7,7,0,0,0-1.37,0,1.61,1.61,0,0,0-1.35,1.6c0,.36,0,.73,0,1.1s.1.39.39.39c2,0,4.05,0,6.07,0H25.36a.56.56,0,0,1,.31,0c0,.14-.11.16-.19.2a8.11,8.11,0,0,0-2.84,2.62.52.52,0,0,1-.5.22H8.39c-.25,0-.34.08-.34.34,0,2.95,0,5.9,0,8.85A1.58,1.58,0,0,0,9.7,29.47H24.48a1.33,1.33,0,0,1,.68.21,7.9,7.9,0,0,0,7,.66.52.52,0,0,1,.59.11c.33.33.66.64,1,.95,0,.06.15.11.13.19s-.15.09-.24.09H9.92a3.88,3.88,0,0,1-3.31-1.6,3.59,3.59,0,0,1-.74-2.21V14.08a3.82,3.82,0,0,1,3.76-3.77H33.82a3.79,3.79,0,0,1,4,3.62c.11,1.25,0,2.5,0,3.75,0,3,0,5.95,0,8.92,0,.17.07.4-.09.48s-.26-.15-.38-.25c-.73-.6-.72-.6-.43-1.49a8,8,0,0,0-3.15-9.09Z"/><path d="M36.39,22.88a6.64,6.64,0,0,1-1,3.72.37.37,0,0,0,.07.57c1.74,1.59,3.46,3.19,5.19,4.79a1.49,1.49,0,0,1,.54,1.68,1.39,1.39,0,0,1-2.32.55l-2.23-2c-1.07-1-2.14-2-3.2-3a.45.45,0,0,0-.65-.08,6.58,6.58,0,0,1-3.65.91A7.11,7.11,0,1,1,34,17.55,7,7,0,0,1,36.39,22.88Zm-7.06-4.61a4.62,4.62,0,1,0,4.58,4.58A4.6,4.6,0,0,0,29.33,18.27Z"/><path d="M16.17,24.55H11.38c-.63,0-.81-.19-.82-.82V22.52c0-.6.22-.82.83-.83,1,0,1.95,0,2.93,0h6.51c.54,0,.55,0,.52.56a8.13,8.13,0,0,0,.08,1.91c.05.3,0,.38-.34.38H16.17Z"/><path d="M29.1,23.25c.11-.39.2-.73.29-1.07a.49.49,0,0,1,.63-.39c.23.05.36.2.28.42-.23.67-.46,1.35-.74,2-.15.33-.87.3-1-.05-.26-.63-.49-1.28-.71-1.93a.3.3,0,0,1,.24-.42c.27,0,.55-.07.67.26S29,22.82,29.1,23.25Z"/><path d="M31.79,23.25c.11-.39.21-.72.28-1.06a.49.49,0,0,1,.59-.4c.26,0,.42.17.33.44-.23.65-.47,1.29-.71,1.94-.1.24-.31.24-.52.24s-.43,0-.53-.24c-.25-.64-.5-1.28-.73-1.93a.31.31,0,0,1,.24-.42c.27-.06.56-.09.68.23S31.66,22.82,31.79,23.25Z"/><path d="M27.1,21.74a2.62,2.62,0,0,1,.31,0,.31.31,0,0,1,.24.36c0,.18-.1.31-.29.33h-.27a.55.55,0,0,0-.57.6.54.54,0,0,0,.55.61,2.48,2.48,0,0,1,.27,0,.35.35,0,0,1,.32.35.31.31,0,0,1-.29.36,1.55,1.55,0,0,1-1.47-.37,1.3,1.3,0,0,1-.25-1.44,1.34,1.34,0,0,1,1.14-.87Z"/></svg>