<svg id="Capa_1" data-name="Capa 1" xmlns="http://www.w3.org/2000/svg" viewBox="0 0 44.99 44.99"><path d="M21.08,36.21H11.63c-1.72,0-2.19-.48-2.2-2.21q0-9.49,0-19a5.43,5.43,0,0,1,0-.8A1.38,1.38,0,0,1,11,12.89H21.69a1.42,1.42,0,0,1,1.55,1.38,1.45,1.45,0,0,1-1.5,1.46c-1.18,0-2.37,0-3.56,0-1.67,0-3.35,0-5,0-.58,0-.81.17-.81.78q0,8,0,16c0,.61.22.79.81.79q8,0,16,0c.57,0,.77-.18.76-.75,0-2.69,0-5.38,0-8.07a5.29,5.29,0,0,1,0-.8,1.44,1.44,0,0,1,1.45-1.26,1.39,1.39,0,0,1,1.36,1.42c0,1.29,0,2.57,0,3.86v6.54c0,1.51-.46,2-2,2Z"/><path d="M19.32,28c-1.18,0-1.87-.87-1.59-1.8.47-1.56,1-3.09,1.54-4.62a2.17,2.17,0,0,1,.61-.8L31.19,9.45a1.56,1.56,0,0,1,2.57,0c.82.81,1.65,1.63,2.46,2.46a1.54,1.54,0,0,1,0,2.52q-5.7,5.71-11.41,11.41a.88.88,0,0,1-.27.24A39.23,39.23,0,0,1,19.32,28Zm2.13-3.76a3.28,3.28,0,0,0,1.72-.8q3.36-3.37,6.74-6.73c.34-.34.49-.59.07-1s-.65-.31-1,.05q-3.36,3.38-6.74,6.73A3,3,0,0,0,21.45,24.22Z"/></svg>