<svg id="Capa_1" data-name="Capa 1" xmlns="http://www.w3.org/2000/svg" viewBox="0 0 44.99 44.99"><path d="M21.89,36H11.54a3.33,3.33,0,0,1-3.48-3.48V18a3.34,3.34,0,0,1,3.44-3.46c1.49,0,3,0,4.49,0,.51,0,.71-.14.68-.67s0-1.34,0-2a2,2,0,0,1,2-2q3.26,0,6.51,0a2,2,0,0,1,2,2c0,.61,0,1.22,0,1.83,0,.87,0,.87.84.87h4.36a3.32,3.32,0,0,1,3.39,3.37q0,7.37,0,14.72A3.31,3.31,0,0,1,32.38,36Zm-7-10.72c0,2.78,0,5.55,0,8.33,0,.56.14.76.73.75q6.28,0,12.56,0c.61,0,.72-.22.72-.76q0-8.34,0-16.67c0-.55-.14-.75-.73-.75q-6.27,0-12.56,0c-.6,0-.72.22-.72.77C14.94,19.67,14.92,22.45,14.92,25.23Zm15.64-.08q0,4.23,0,8.46c0,.26-.11.58.3.68,1.94.5,3.25-.48,3.25-2.46V18.88c0-2.22-.54-2.75-2.78-2.73h-.06c-.59-.1-.73.18-.73.74C30.58,19.64,30.56,22.4,30.56,25.15Zm-17.29.06c0-2.58,0-5.16,0-7.74,0-1.51.23-1.32-1.36-1.32A1.91,1.91,0,0,0,9.72,18.3c0,4.62,0,9.24,0,13.86a1.92,1.92,0,0,0,2.14,2.14c.21,0,.43,0,.65,0,.59.08.78-.15.77-.76C13.25,30.77,13.27,28,13.27,25.21Zm8.65-10.72H25c.38,0,.56-.12.54-.52,0-.59,0-1.17,0-1.76a.69.69,0,0,0-.77-.76H19.08a.67.67,0,0,0-.76.76c0,.56,0,1.13,0,1.69s.18.6.62.59C19.92,14.48,20.92,14.49,21.92,14.49Z"/></svg>