<svg id="Capa_1" data-name="Capa 1" xmlns="http://www.w3.org/2000/svg" viewBox="0 0 44.99 44.99"><path d="M35.28,22.49v7.43a5.38,5.38,0,0,1-4.69,5.32,6.79,6.79,0,0,1-.78,0H15.11a5.37,5.37,0,0,1-5.35-4.63,4.24,4.24,0,0,1,0-.71V15a5.32,5.32,0,0,1,5.37-5.29H29.86a5.36,5.36,0,0,1,5.34,4.44,4.77,4.77,0,0,1,.08.92v7.42Zm-12.77,12H30A4.53,4.53,0,0,0,34.47,30c0-1.54,0-3.08,0-4.62,0-1.85,0-3.71,0-5.56,0-1.47,0-2.94,0-4.41a6.05,6.05,0,0,0-.09-1.21A4.56,4.56,0,0,0,30,10.52H15A4.52,4.52,0,0,0,10.52,15c0,1.49,0,3,0,4.48s0,3.14,0,4.71c0,.49,0,1,0,1.46,0,1.38,0,2.77,0,4.15A4.47,4.47,0,0,0,11.68,33a4.57,4.57,0,0,0,3.55,1.52C17.65,34.46,20.08,34.47,22.51,34.47Z"/><path d="M22.52,10.94h7.33a4.15,4.15,0,0,1,4.2,4.2V29.89a4.15,4.15,0,0,1-4.15,4.16H15.09a4.14,4.14,0,0,1-4.15-4.15q0-7.42,0-14.83A4.15,4.15,0,0,1,14.46,11a3.82,3.82,0,0,1,.68-.06Zm-4.3,11.55v7.64c0,.13.06.18.19.18h1.91c.33,0,.33,0,.33-.33V24.4c0-.29,0-.3.3-.31.44,0,.87,0,1.3,0A21.49,21.49,0,0,0,24.79,24a3.91,3.91,0,0,0,2.95-1.94,5.25,5.25,0,0,0,.4-4.63,3.88,3.88,0,0,0-2.21-2.41,6.21,6.21,0,0,0-2.26-.38H18.58c-.36,0-.36,0-.36.36Q18.21,18.78,18.22,22.49Z"/><path d="M20.65,19.34c0-.69,0-1.38,0-2.07,0-.22.06-.3.28-.29.95,0,1.9,0,2.85,0a2.19,2.19,0,0,1,2.14,2.61,2.36,2.36,0,0,1-.31,1.05,2,2,0,0,1-1.77,1c-1,0-2,0-2.94,0-.21,0-.25-.09-.25-.27Z"/></svg>