<svg id="Capa_1" data-name="Capa 1" xmlns="http://www.w3.org/2000/svg" viewBox="0 0 44.99 44.99"><path d="M39.74,23.15a17,17,0,1,1-16.91-17A17,17,0,0,1,39.74,23.15Zm-6.4-5c0-.35,0-.7-.05-1a3,3,0,0,0-3.94-2.78,6.14,6.14,0,0,0-4.16,3.7c-.34.83-.33.83.52.72a4,4,0,0,1,.77,0,1,1,0,0,1,1,1.24,4.43,4.43,0,0,1-.19.69,18.26,18.26,0,0,1-2.1,4.16,5.53,5.53,0,0,1-.66.79c-.3.32-.56.28-.73-.15s-.42-1-.6-1.58c-.79-2.38-1.37-4.82-1.94-7.27-.45-2-1.93-2.58-3.59-1.47a41.07,41.07,0,0,0-3.85,3,7.18,7.18,0,0,0-1.51,1.6c-.15.25-.31.51-.09.77a.79.79,0,0,0,.83.25,2.65,2.65,0,0,0,.76-.36c1.31-.83,2.28-.54,2.9.89.1.22.16.45.24.67.63,2,.91,4.1,1.63,6.08a6.82,6.82,0,0,0,2.6,3.7,2.24,2.24,0,0,0,1.73.32A7.63,7.63,0,0,0,26.47,30a26.11,26.11,0,0,0,5.47-7.18A8.86,8.86,0,0,0,33.34,18.17Z"/></svg>