<svg id="Capa_1" data-name="Capa 1" xmlns="http://www.w3.org/2000/svg" viewBox="0 0 44.99 44.99"><path d="M39.52,23.79a17,17,0,1,1-17-17A16.93,16.93,0,0,1,39.52,23.79ZM20.4,25.54c0,1.36,0,2.72,0,4.09,0,.61.22.82.8.76a5.24,5.24,0,0,1,1,0c.61.06.87-.15.83-.8s0-1.38,0-2.07a17.94,17.94,0,0,1,.09-3.11,1.64,1.64,0,0,1,1.7-1.4,1.56,1.56,0,0,1,1.66,1.33,4.5,4.5,0,0,1,.09.9c0,1.49,0,3,0,4.48,0,.51.17.7.68.67s.95,0,1.43,0,.55-.13.55-.53c0-1.95,0-3.9,0-5.84-.06-1.78-.88-2.89-2.28-3.24a3.28,3.28,0,0,0-3.38,1c-.1.11-.18.27-.36.24s-.15-.16-.14-.26c.15-.95-.45-.95-1.11-.9a5,5,0,0,1-.77,0c-.53-.05-.73.14-.72.69C20.43,22.85,20.4,24.2,20.4,25.54Zm-1.87.11c0-1.4,0-2.81,0-4.22,0-.43-.14-.63-.6-.61s-1,0-1.49,0-.57.18-.57.59q0,4.22,0,8.43c0,.38.15.56.54.55s1,0,1.49,0,.64-.19.63-.65C18.52,28.37,18.53,27,18.53,25.65Zm0-7.06a1.38,1.38,0,0,0-1.32-1.4,1.38,1.38,0,0,0,0,2.75A1.38,1.38,0,0,0,18.56,18.59Z"/></svg>