<svg id="Capa_1" data-name="Capa 1" xmlns="http://www.w3.org/2000/svg" viewBox="0 0 44.99 44.99"><path d="M21,6.12h2.91c.54.08,1.08.13,1.6.25A16.83,16.83,0,0,1,38.8,18.58a18.12,18.12,0,0,1,.57,3.11v2.79a1.09,1.09,0,0,0,0,.26A15.82,15.82,0,0,1,36.88,32c-3.93,6-9.49,8.67-16.63,8a15.22,15.22,0,0,1-8.11-3.32A16.6,16.6,0,0,1,5.7,20,17,17,0,0,1,18.15,6.62C19.08,6.39,20,6.26,21,6.12ZM20.35,29H26c.66,0,.83-.17.83-.82V20.58a3.78,3.78,0,0,0-.06-.82,3.24,3.24,0,0,0-3.29-2.54H12.17c-.59,0-.8.21-.8.8v7.52A3.48,3.48,0,0,0,11.66,27,3.21,3.21,0,0,0,14.76,29C16.62,29,18.49,29,20.35,29Zm12.7-5.85V17.78c0-.19,0-.4-.18-.5s-.35,0-.5.15l-4.52,3.3a.53.53,0,0,0-.25.5c0,1.23,0,2.47,0,3.71a.64.64,0,0,0,.29.55l4.37,3.17a1.9,1.9,0,0,0,.33.22c.24.11.41,0,.46-.24a2.64,2.64,0,0,0,0-.4C33.06,26.53,33.05,24.82,33.05,23.11Z"/></svg>