<svg id="Capa_1" data-name="Capa 1" xmlns="http://www.w3.org/2000/svg" viewBox="0 0 44.99 44.99"><path d="M6.06,23.07a17.06,17.06,0,1,1,17.59,17A17,17,0,0,1,6.06,23.07Zm18.76,5c0-1.49,0-3,0-4.47,0-.51.18-.71.68-.69s1.25,0,1.88,0c.37,0,.56-.14.55-.54q0-1.4,0-2.79c0-.44-.2-.55-.59-.54-.63,0-1.26,0-1.89,0-.19,0-.45,0-.53-.16a2.1,2.1,0,0,1,0-1.46.93.93,0,0,1,.89-.64c.5,0,1,0,1.49,0s.64-.11.63-.58c0-.93,0-1.86,0-2.79,0-.42-.15-.59-.57-.58-.95,0-1.91,0-2.86,0a3.9,3.9,0,0,0-3.8,3.9c0,.56,0,1.12,0,1.68s-.19.63-.62.61-.7,0-1,0c-.55,0-.73.21-.71.73s0,1.21,0,1.81c0,1.45-.12,1.33,1.33,1.33,1,0,1,0,1,1.06,0,2.82,0,5.63,0,8.44,0,.56.15.78.73.75.91,0,1.82,0,2.73,0,.51,0,.68-.17.67-.68C24.81,31.05,24.82,29.58,24.82,28.11Z"/></svg>