<svg id="Capa_1" data-name="Capa 1" xmlns="http://www.w3.org/2000/svg" viewBox="0 0 44.99 44.99"><defs><style>.cls-1{fill:#fff;}</style></defs><circle cx="22.38" cy="23.32" r="17.06"/><path class="cls-1" d="M25.94,34a8.28,8.28,0,0,1-1.89-.52,11.86,11.86,0,0,1-3.23-2.09,19.47,19.47,0,0,1-4.1-5.32,19,19,0,0,1-1.82-4.63A12.68,12.68,0,0,1,14.51,18a6.83,6.83,0,0,1,1.15-3.72,6.72,6.72,0,0,1,.85-.92,2.84,2.84,0,0,1,1.58-.57l.66-.12a.81.81,0,0,1,1,.55L21,16.57a1.51,1.51,0,0,1-.13,1.51l-.12.19a2.1,2.1,0,0,1-.71.8,2,2,0,0,0-.9,1.73,5.44,5.44,0,0,0,.57,2.41,13.7,13.7,0,0,0,1.93,3.2,4.54,4.54,0,0,0,1.74,1.42,2.13,2.13,0,0,0,1.86-.09,1.07,1.07,0,0,1,.63-.15,3.49,3.49,0,0,1,1.12.07,1.45,1.45,0,0,1,.63.43l2.42,3a.81.81,0,0,1,0,1.06c-.3.35-.61.7-.9,1.07a2.43,2.43,0,0,1-1.25.67c-.23.07-.47.11-.71.16Z"/><path class="cls-1" d="M30.08,23.37a8.13,8.13,0,0,1-.24,1.79.49.49,0,0,1-.58.39.48.48,0,0,1-.35-.6,6.61,6.61,0,0,0,.19-1.88,6.11,6.11,0,0,0-1.33-3.62,6.26,6.26,0,0,0-3-2.11,2.53,2.53,0,0,1-.36-.12.47.47,0,0,1-.29-.59.48.48,0,0,1,.61-.3,7.13,7.13,0,0,1,2,.86,7.25,7.25,0,0,1,3.21,4.56A8.2,8.2,0,0,1,30.08,23.37Z"/><path class="cls-1" d="M28.24,23.31a4.31,4.31,0,0,1-.14,1.34c-.09.38-.39.54-.68.39a.47.47,0,0,1-.26-.55,5.65,5.65,0,0,0,.15-1.22,4.51,4.51,0,0,0-3-4.18L23.93,19a.46.46,0,0,1-.28-.58.48.48,0,0,1,.59-.31,5.32,5.32,0,0,1,2,1.06,5.43,5.43,0,0,1,1.95,3.62A3.47,3.47,0,0,1,28.24,23.31Z"/><path class="cls-1" d="M26.46,23.31a3.3,3.3,0,0,1-.13,1,.47.47,0,0,1-.82.19.45.45,0,0,1-.1-.37,3,3,0,0,0,0-1.34,2.65,2.65,0,0,0-1.71-1.93l-.26-.1a.47.47,0,0,1,.31-.89,2.66,2.66,0,0,1,.68.26A3.64,3.64,0,0,1,26.46,23.31Z"/><path class="cls-1" d="M23.66,23.48a.84.84,0,0,0-.6-1c-.18-.08-.32-.17-.35-.38a.47.47,0,0,1,.61-.54,1.86,1.86,0,0,1,1.26,2.23.47.47,0,0,1-.56.34.44.44,0,0,1-.36-.49Z"/></svg>