<svg id="Capa_1" data-name="Capa 1" xmlns="http://www.w3.org/2000/svg" viewBox="0 0 44.99 44.99"><path d="M6,23.16A17,17,0,1,1,23.07,40.21,17,17,0,0,1,6,23.16Zm5.89-.45c0,2.24,0,4.12.15,6A5.9,5.9,0,0,0,17.09,34c.93.08,1.86.13,2.79.14,2.92,0,5.84,0,8.76-.12a5.81,5.81,0,0,0,5.28-4.91A66.57,66.57,0,0,0,34,17.68a5.62,5.62,0,0,0-5.39-5.43,72.46,72.46,0,0,0-11.22,0A5.89,5.89,0,0,0,12,18C12,19.65,11.88,21.36,11.85,22.71Z"/><path d="M32.72,23c0,2,0,3.79-.14,5.56a4.36,4.36,0,0,1-3.86,4,76.11,76.11,0,0,1-11.4,0,4.17,4.17,0,0,1-3.77-3.63,58.11,58.11,0,0,1-.16-9.14c0-.8,0-1.6.14-2.4a4.38,4.38,0,0,1,4.06-3.73c2.68-.14,5.36-.15,8-.11,1,0,2,.06,3.05.13a4.43,4.43,0,0,1,3.9,4.05C32.69,19.57,32.75,21.4,32.72,23Zm-15.36.17A5.7,5.7,0,0,0,23,28.85a5.79,5.79,0,0,0,5.73-5.77A5.71,5.71,0,0,0,23,17.47,5.6,5.6,0,0,0,17.36,23.17ZM30.41,17.1a1.29,1.29,0,0,0-1.18-1.24A1.24,1.24,0,0,0,28,17.07a1.16,1.16,0,0,0,1.16,1.15A1.2,1.2,0,0,0,30.41,17.1Z"/><path d="M27.24,23.16a4.24,4.24,0,0,1-8.47,0,4.33,4.33,0,0,1,4.28-4.26A4.27,4.27,0,0,1,27.24,23.16Z"/></svg>