<svg id="Capa_1" data-name="Capa 1" xmlns="http://www.w3.org/2000/svg" viewBox="0 0 44.99 44.99"><path d="M24.09,6a17.06,17.06,0,1,1-17,17.66A17,17,0,0,1,24.09,6ZM18.89,32V33.8c0,.13,0,.29.15.31s.19-.08.26-.16a9.18,9.18,0,0,0,2.48-3.81c.21-.85.58-1.67.85-2.52.14-.44.32-.52.74-.27a5.14,5.14,0,0,0,2.64.8,6.53,6.53,0,0,0,5.17-2.55A9.28,9.28,0,0,0,33.31,20c.15-2.41-.49-4.58-2.53-6a10.91,10.91,0,0,0-10.85-1.27,7.79,7.79,0,0,0-5,7.87,4.59,4.59,0,0,0,2.65,4.15.47.47,0,0,0,.71-.2,1.7,1.7,0,0,0,0-1.94,4.13,4.13,0,0,1-.66-3,6.91,6.91,0,0,1,5.56-5.55,5.54,5.54,0,0,1,6.5,3.46A7.17,7.17,0,0,1,29,23.8a3.78,3.78,0,0,1-2.85,1.84,2.17,2.17,0,0,1-2.56-2.72c.25-1.14.58-2.26.92-3.38a1.81,1.81,0,0,0-.52-2.07,1.63,1.63,0,0,0-1.84-.11c-1.5.7-2.23,1.95-1.68,3.48a5.65,5.65,0,0,1-.07,3.59A12.66,12.66,0,0,0,20,25.75C19.63,27.89,18.74,29.94,18.89,32Z"/></svg>