<svg id="Capa_1" data-name="Capa 1" xmlns="http://www.w3.org/2000/svg" viewBox="0 0 44.99 44.99"><path d="M23.23,6a17,17,0,1,1-17,16.53A16.94,16.94,0,0,1,23.23,6Zm-.09,16.48H21.39c-1.26,0-1.24,0-1.22,1.25,0,.49.21.63.67.62.82,0,1.64,0,2.46,0s.71,0,.5.68a3.73,3.73,0,0,1-3.72,2.27,4.15,4.15,0,0,1-3.86-2.67,4.58,4.58,0,0,1,1.06-4.8,4.55,4.55,0,0,1,5-.5c.34.19.57.73,1,.56s.6-.54.9-.83l0,0c.43-.32.31-.58-.05-.86a6.41,6.41,0,0,0-10.31,6.2,6.21,6.21,0,0,0,6.66,4.95,5.54,5.54,0,0,0,5.53-6.17c0-.47-.23-.66-.69-.65C24.66,22.5,23.9,22.49,23.14,22.49Zm7.62-1a2.35,2.35,0,0,1,0-.26c0-.45-.05-.73-.62-.73s-.61.31-.61.74c0,1.25.29,1.22-1.21,1.22-.67,0-.85.2-.71.79s.54.33.85.34c1.07,0,1.07,0,1.08,1.07v.19c0,.42.05.7.58.7s.64-.25.64-.72c0-1.16-.25-1.25,1.22-1.23h.13a.61.61,0,0,0,.54-.94c-.21-.35-.59-.19-.89-.2C30.76,22.45,30.76,22.46,30.76,21.5Z"/></svg>