<svg id="Capa_1" data-name="Capa 1" xmlns="http://www.w3.org/2000/svg" viewBox="0 0 44.99 44.99"><path d="M23,40.83A17.05,17.05,0,1,1,40.06,24,17,17,0,0,1,23,40.83Zm-9.12-8a1.35,1.35,0,0,0,.82-.12c1.18-.43,2.36-.85,3.53-1.3a1.88,1.88,0,0,1,1.54,0A8.78,8.78,0,0,0,32.12,25,8.62,8.62,0,0,0,29,16.53,8.83,8.83,0,0,0,15.33,27a1.63,1.63,0,0,1,0,1.3A43.16,43.16,0,0,0,13.85,32.81Z"/><path d="M24.13,15.93a6.91,6.91,0,0,1,5.94,4.16,7.17,7.17,0,0,1-.75,7.84A7.43,7.43,0,0,1,19.84,30a1.56,1.56,0,0,0-1.52-.1c-.64.27-1.3.48-1.95.72-.35.13-.46,0-.33-.32.28-.77.56-1.55.88-2.3a.9.9,0,0,0-.06-.91C14.05,22.08,17.62,15.94,24.13,15.93Zm-5,5.63A4.71,4.71,0,0,0,19.68,24a7.81,7.81,0,0,0,2.95,3,4.86,4.86,0,0,0,4.49.35,1,1,0,0,0,.73-1,1.43,1.43,0,0,0-1-1.27,1.16,1.16,0,0,0-1.41.36.94.94,0,0,1-1.26.29,6.23,6.23,0,0,1-3-2.84c-.29-.54-.45-1.16.24-1.61a.92.92,0,0,0,.28-.43,1.52,1.52,0,0,0-.89-1.8c-.66-.24-1.17.06-1.46.86A4.44,4.44,0,0,0,19.1,21.56Z"/></svg>