<svg id="Capa_1" data-name="Capa 1" xmlns="http://www.w3.org/2000/svg" viewBox="0 0 44.99 44.99"><path d="M6.08,23.73a17,17,0,1,1,16.59,17.1A17,17,0,0,1,6.08,23.73ZM12,30a4,4,0,0,0,.42.16,1.83,1.83,0,0,0,.32.07,3,3,0,0,1,2.71,1.71.49.49,0,0,0,.55.25,7.27,7.27,0,0,1,4.45,1.15,4.85,4.85,0,0,0,5.33,0,7.35,7.35,0,0,1,4.52-1.16.56.56,0,0,0,.61-.37,2.76,2.76,0,0,1,2.32-1.55,2.59,2.59,0,0,0,1-.27,10.11,10.11,0,0,0-1.59-.89,7.77,7.77,0,0,1-3.29-3.4,1.63,1.63,0,0,1,1.13-2.43,8.09,8.09,0,0,1,.82-.19c.31-.07.56-.23.5-.56s-.38-.39-.67-.35-.68.17-1,.2c-.83.06-1.16-.26-1.12-1.09s.17-1.81.14-2.72a4.86,4.86,0,0,0-4.37-5.06,10.13,10.13,0,0,0-2.91-.06,4.81,4.81,0,0,0-4.63,4.92,17,17,0,0,0,.09,2.85c.1.8-.26,1.2-1.07,1.16a7.21,7.21,0,0,1-1-.2.51.51,0,0,0-.67.35c-.1.37.14.5.45.57l.45.1c1.67.4,2.13,1.46,1.27,2.95a7.89,7.89,0,0,1-2.24,2.4C13.72,29.07,12.88,29.42,12,30Z"/></svg>