<svg id="Capa_1" data-name="Capa 1" xmlns="http://www.w3.org/2000/svg" viewBox="0 0 44.99 44.99"><path d="M5.83,23.1A17.06,17.06,0,1,1,22.58,40.21,17.08,17.08,0,0,1,5.83,23.1Zm28.75.08h0v-2.6c0-.86,0-1.73,0-2.6a3.77,3.77,0,0,0-3.14-3.61A51.54,51.54,0,0,0,25.61,14c-3.52-.12-7,0-10.57.25a3.82,3.82,0,0,0-3.87,3.83q-.06,5,0,10.07A3.79,3.79,0,0,0,14.51,32c1.53.14,3.07.24,4.6.27,3.9.08,7.79.07,11.68-.22a3.85,3.85,0,0,0,3.79-3.89C34.59,26.47,34.58,24.83,34.58,23.18Z"/><path d="M19.77,23.16c0-.82,0-1.64,0-2.46,0-.66.1-.73.66-.46l5.33,2.66c.39.19.3.34,0,.5-1.82.91-3.63,1.81-5.44,2.73-.44.22-.53,0-.53-.38Z"/></svg>