<svg id="Capa_1" data-name="Capa 1" xmlns="http://www.w3.org/2000/svg" viewBox="0 0 44.99 44.99"><path d="M41,23.84A17,17,0,1,1,24,6.73,17,17,0,0,1,41,23.84ZM20.74,16.1a23.51,23.51,0,0,0-4,.31A29.68,29.68,0,0,0,12,17.57a1.45,1.45,0,1,0,.9,2.76l.93-.29a25.8,25.8,0,0,1,11-.77,26.09,26.09,0,0,1,10.07,3.57,1.31,1.31,0,0,0,1.67-.21,1.46,1.46,0,0,0-.47-2.42A28.81,28.81,0,0,0,20.74,16.1Zm1,5.33a18.11,18.11,0,0,0-5.92.91,3.26,3.26,0,0,0-1.18.51,1.1,1.1,0,0,0-.39,1.33,1.16,1.16,0,0,0,1.17.85,3.31,3.31,0,0,0,.94-.22,17.4,17.4,0,0,1,8.07-.7,15,15,0,0,1,6.89,2.66,1.23,1.23,0,0,0,1.79-.24,1.24,1.24,0,0,0-.26-1.74A10.2,10.2,0,0,0,31,23.56,19.65,19.65,0,0,0,21.69,21.43ZM22,26.27a17.18,17.18,0,0,0-3.64.52,12.18,12.18,0,0,0-2.26.81,1,1,0,0,0-.61,1.33,1.1,1.1,0,0,0,1.38.64c.27-.08.53-.18.79-.28a12.09,12.09,0,0,1,8.74,0,10,10,0,0,1,3.18,1.83c.63.56,1.21.55,1.65,0A1.15,1.15,0,0,0,31,29.45l-.29-.25A14.49,14.49,0,0,0,22,26.27Z"/></svg>