<svg id="Capa_1" data-name="Capa 1" xmlns="http://www.w3.org/2000/svg" viewBox="0 0 12.97 13.04"><defs><style>.cls-1{fill:#fff;}</style></defs><circle cx="6.84" cy="6.51" r="4.76"/><path class="cls-1" d="M6,6.45a4.57,4.57,0,0,0,0,.49C6,7,6,7,6.07,7A6.85,6.85,0,0,1,7,7,.07.07,0,0,1,7.05,7c0,.1,0,.2.07.3s0,.06,0,.06a5.66,5.66,0,0,0-.92,0c-.05,0-.07,0-.06.08a3.41,3.41,0,0,0,.67,1.26h0c.06.08.06.08.12,0a2.8,2.8,0,0,0,.37-.53s0,0,0,0,0,0,0,.05c.07.29.13.58.2.87,0,.05,0,.07-.06.08a2.9,2.9,0,0,1-.88.05,2.77,2.77,0,0,1-1-.28A2.82,2.82,0,0,1,4,6.8,2.75,2.75,0,0,1,4.7,4.52a2.8,2.8,0,0,1,1.73-.95A2.86,2.86,0,0,1,9.34,5,2.87,2.87,0,0,1,9.5,7.44s0,.07-.1,0l-.24-.13s-.05,0,0-.09a2.3,2.3,0,0,0,.16-1,3.14,3.14,0,0,0-.12-.61s0,0-.08,0a5.41,5.41,0,0,1-.81.24l-.13,0s-.05,0-.05.07a3.94,3.94,0,0,1,0,.77c0,.08,0,.09-.09,0L7.77,6.6a.11.11,0,0,1-.06-.11,3.77,3.77,0,0,0,0-.47c0-.1,0-.09-.11-.08A6.51,6.51,0,0,1,6.33,6l-.27,0C6,5.92,6,5.94,6,6A3.1,3.1,0,0,0,6,6.45ZM4.41,6.39a2.15,2.15,0,0,0,.17.9s0,.07.09,0a4.13,4.13,0,0,1,.85-.24c.05,0,.06,0,.05-.08a4.13,4.13,0,0,1,0-1.11s0-.06,0-.07a5.47,5.47,0,0,1-.9-.26c-.05,0-.06,0-.08,0A2.25,2.25,0,0,0,4.41,6.39Zm2.44-.82.4,0,.28,0s.08,0,.06-.08l0-.15A3.85,3.85,0,0,0,6.86,4s0,0-.06,0a3.93,3.93,0,0,0-.73,1.44s0,0,0,.06C6.35,5.55,6.6,5.56,6.85,5.57ZM7.39,4a.1.1,0,0,0,0,.07A4.36,4.36,0,0,1,8,5.38c0,.06,0,.07.1.06a7.32,7.32,0,0,0,.8-.23c.07,0,.07,0,0-.09a2.41,2.41,0,0,0-1.14-1A2.52,2.52,0,0,0,7.39,4ZM5.6,5.44s.05,0,.06-.05a4.17,4.17,0,0,1,.58-1.31s0,0,0,0,0,0,0,0a2.49,2.49,0,0,0-1.46,1.1s0,.05,0,.06L5,5.27C5.18,5.34,5.39,5.39,5.6,5.44Zm.63,3.32v0a3.87,3.87,0,0,1-.54-1.19s0,0-.08,0a6.05,6.05,0,0,0-.73.2c-.07,0-.07,0,0,.09a2.52,2.52,0,0,0,.56.57A2.66,2.66,0,0,0,6.23,8.76Z"/><path class="cls-1" d="M7.33,6.77s0,0,0,0l.39.2,1.82,1s.1,0,.1.07-.07,0-.11.05L9,8.22c-.05,0-.06,0,0,.07.19.25.36.5.55.74,0,.05,0,.08,0,.11l-.43.32c-.05,0-.07,0-.1,0l-.54-.74c-.05-.06-.05-.06-.09,0L8,9.27s0,0,0,0,0,0,0-.05c-.19-.82-.37-1.64-.56-2.46Z"/></svg>