<svg id="Capa_1" data-name="Capa 1" xmlns="http://www.w3.org/2000/svg" viewBox="0 0 44.99 44.99"><path d="M7,34.53a3.86,3.86,0,0,1,2.5-2.37l.37-.09c1.19-.19,1.19-.19,1.2-1.44a4.36,4.36,0,0,1,1.79-2.47c.24-.07.38.09.52.23,1.44,1.43,2.87,2.87,4.31,4.29a.52.52,0,0,1,0,.89,4.37,4.37,0,0,0-.64.65,1.92,1.92,0,0,1-1.92.8c-.72-.1-1,.08-1.09.95a3.43,3.43,0,0,1-2.6,3.12h-2A4.39,4.39,0,0,1,7,36.66Zm4.67,1a1.13,1.13,0,0,0-1.22-1.15,1.19,1.19,0,0,0,.07,2.37A1.13,1.13,0,0,0,11.68,35.56Z"/><path d="M31.56,18.19c.32-.11.66.41.94-.2.18-.4.52-.89,1-.78s.71.68.82,1.18a1.09,1.09,0,0,1-.53,1.24,3,3,0,0,1-2.21.27,15.93,15.93,0,0,1-3.69-1.14,15.63,15.63,0,0,0-3.53-1.13.57.57,0,0,0-.69.26c-.26.37-.55.94-1.09.75a1.39,1.39,0,0,1-.77-1.31,1.17,1.17,0,0,1,.74-1.21,2.94,2.94,0,0,1,2.16-.1,2.18,2.18,0,0,0,2.74-.82,28,28,0,0,1,2-2.06,1.53,1.53,0,0,1,1.08-.49,1.24,1.24,0,0,0,1.35-1.33,2.73,2.73,0,0,1,2.87-2.71,2.66,2.66,0,0,1,2.71,2.6,2.75,2.75,0,0,1-2.69,3,1.3,1.3,0,0,0-1.34,1.37,1.71,1.71,0,0,1-.61,1.18c-.42.4-.82.82-1.23,1.24C31.59,18,31.59,18.07,31.56,18.19Zm3.2-5.75a1.1,1.1,0,0,0,1.08-1.12,1.26,1.26,0,0,0-1.11-1.06,1.1,1.1,0,0,0-1.07,1.13A1,1,0,0,0,34.76,12.44Z"/><path d="M23.55,26c-.1.12-.22.29-.36.43-.71.72-1.41,1.45-2.16,2.14-.38.35-.37.61,0,.91a2.42,2.42,0,0,1,.32.32c.73.76.73,1.17,0,1.93-.41.42-.82.83-1.24,1.23a1,1,0,0,1-1.55,0L13.14,27.5a1,1,0,0,1,0-1.48c.45-.48.92-.95,1.4-1.4.63-.6,1.05-.58,1.7,0l.11.1c.78.75.82.79,1.53,0a1.46,1.46,0,0,1,1.92-.45c1.11.48,2.27.88,3.4,1.32C23.35,25.64,23.56,25.67,23.55,26Z"/><path d="M28.59,21c.45.11.74.31,1-.16s.54-.89,1-.76.71.69.8,1.2a1.15,1.15,0,0,1-.61,1.28,3.33,3.33,0,0,1-2.22.2,18,18,0,0,1-4.17-1.36,12.7,12.7,0,0,0-3.12-.92c-.26,0-.38,0-.52.23-.22.42-.54.94-1.06.82s-.7-.69-.79-1.2a1.14,1.14,0,0,1,.6-1.28,3.28,3.28,0,0,1,2.07-.23,4.33,4.33,0,0,1,1,.22,1,1,0,0,0,1.38-.4,1,1,0,0,1,1.34-.32c1.25.49,2.51.95,3.76,1.42.43.16.41.37.12.65S28.82,20.78,28.59,21Z"/><path d="M25.71,23.91c.41.15.7.37,1-.14s.54-.9,1-.76a1.31,1.31,0,0,1,.78,1.21,1.14,1.14,0,0,1-.66,1.32,3.58,3.58,0,0,1-2.17.14,16.79,16.79,0,0,1-4-1.27,12.35,12.35,0,0,0-3.27-1c-.26,0-.42-.07-.58.25s-.53.89-1,.79-.71-.69-.82-1.18A1.13,1.13,0,0,1,16.56,22a2.85,2.85,0,0,1,2-.3,3.05,3.05,0,0,1,.9.17,1.34,1.34,0,0,0,1.77-.48.77.77,0,0,1,.95-.23c1.4.38,2.68,1.07,4.05,1.52.38.12.34.31.11.54Z"/></svg>