<svg id="Capa_1" data-name="Capa 1" xmlns="http://www.w3.org/2000/svg" viewBox="0 0 44.99 44.99"><path d="M17.92,18.44h8.89c1.47,0,2,.57,2,2q0,5.3,0,10.61c0,1.5-.59,2.08-2.08,2.08H9c-1.51,0-2.14-.61-2.15-2.12q0-5.24,0-10.47c0-1.54.61-2.14,2.13-2.14Zm-.06,5.9c-3,0-6.08,0-9.12,0-.6,0-.84.17-.83.8,0,2,0,3.94,0,5.91,0,.88.16,1,1.06,1H26.7c.9,0,1.05-.15,1.05-1.05,0-1.92,0-3.83,0-5.75,0-.72-.22-.95-.94-.94C23.84,24.36,20.85,24.34,17.86,24.34ZM17.79,21h0c3.06,0,6.13,0,9.19,0,.66,0,.82-.22.78-.82s-.5-.7-1-.7H9a2.21,2.21,0,0,0-.52,0c-.56.14-.51.6-.52,1s.33.45.66.45Z"/><path d="M36.18,15.26c-.06.22-.13.62-.23,1-.89,3.24-1.79,6.48-2.65,9.73-.54,2.06-1.85,1.91-3.28,1.38-.4-.15-.37-.5-.3-.82s.41-.26.67-.2c1.55.32,1.56.32,2-1.22.48-1.72.94-3.46,1.44-5.18.13-.49,0-.71-.48-.85q-8.86-2.38-17.73-4.83c-.55-.15-.84,0-1,.53s-.41,1.44-.57,2.17c-.12.52-.41.74-.91.61S12.9,17,13,16.73q.88-3.32,1.82-6.63c.4-1.44,1.13-1.87,2.55-1.48l15.34,4.19c.74.2,1.49.39,2.23.62A1.74,1.74,0,0,1,36.18,15.26Zm-1.13-.07c0-.65-.48-.73-.94-.85L22.73,11.23l-5.91-1.6c-.66-.18-.81.25-1,.73s.1.65.51.76l17.73,4.82C34.79,16.13,35.05,15.91,35.05,15.19Z"/><path d="M15.64,27.16h5a5,5,0,0,1,.67,0c.34,0,.66.13.67.55s-.29.54-.64.58a3.82,3.82,0,0,1-.59,0H10.52c-.48,0-1.22.16-1.2-.6s.76-.56,1.24-.57C12.25,27.15,14,27.16,15.64,27.16Z"/><path d="M12.25,30.78H10c-.38,0-.73-.1-.73-.56s.35-.52.69-.52c1.5,0,3,0,4.48,0,.37,0,.73.13.72.58s-.4.5-.76.51Z"/></svg>