<svg id="Capa_1" data-name="Capa 1" fill="#fff" xmlns="http://www.w3.org/2000/svg" viewBox="0 0 44.99 44.99"><path d="M22.64,7.6a7.67,7.67,0,0,1,5.17,3.57,7.51,7.51,0,0,1-8.06,11.19A7.59,7.59,0,0,1,14,16.45a7.51,7.51,0,0,1,5.8-8.75l.32-.1Z"/><path d="M21.4,37.38H12.89c-3.27,0-5.22-2-5.21-5.25a18.37,18.37,0,0,1,1.18-6.85,5.94,5.94,0,0,1,4.44-4,2.5,2.5,0,0,1,2.07.37,11.79,11.79,0,0,0,3.94,1.94,8.8,8.8,0,0,0,6.84-1.13c.21-.12.41-.26.61-.39a3.85,3.85,0,0,1,4.95.19,6.68,6.68,0,0,1,2.2,3.07,17.53,17.53,0,0,1,1.15,7.44,4.69,4.69,0,0,1-4.88,4.62c-2.92,0-5.85,0-8.78,0Z"/></svg>