<svg id="Capa_1" data-name="Capa 1" xmlns="http://www.w3.org/2000/svg" viewBox="0 0 44.99 44.99"><path d="M26.55,8.41c-.17-.05-.34,0-.52,0-.87-.06-1.75,0-2.62,0-.34,0-.68,0-1,0-.87,0-1.75,0-2.62,0-.34,0-.67,0-1,0-.72,0-1.45,0-2.17,0A1,1,0,0,1,16,8.26a.81.81,0,0,1-.34-.84.78.78,0,0,1,.75-.59h10a.32.32,0,0,0,.19,0,.56.56,0,0,0-.18-.22L24.21,4.42a.79.79,0,1,1,1.13-1.11l2.21,2.21c.64.64,1.27,1.28,1.91,1.91.15.14.15.25,0,.38s-.53.49-.78.75c-.69.75-1.44,1.43-2.15,2.17-.36.38-.74.75-1.11,1.12a.85.85,0,0,1-1.37-.06.83.83,0,0,1,.19-1l2.13-2.13c.06-.06.15-.1.22-.16Z"/><path d="M32.72,15.79a5.28,5.28,0,0,0-.91,1.48c-1.12,2-2.24,4-3.31,6a2.49,2.49,0,0,1-2.42,1.42c-2.57,0-5.14,0-7.72,0a.76.76,0,0,0-.83.5c-.19.43-.43.82-.65,1.23s-.06.46.28.48H29.77c.68,0,.69,0,.7.69,0,.39,0,.79,0,1.18s-.17.6-.58.56a4.34,4.34,0,0,0-.51,0H16.77a2.46,2.46,0,0,1-2.24-3.83c.4-.7.81-1.4,1.23-2.08a.78.78,0,0,0,0-.78q-1.92-4-3.81-8a.49.49,0,0,0-.53-.31H10c-.33,0-.47-.13-.46-.47s0-1,0-1.49c0-.32.1-.47.44-.46H13a.51.51,0,0,1,.54.37c.21.48.44.94.62,1.42a.71.71,0,0,0,.78.5c2.09,0,4.18,0,6.28,0h10a1.53,1.53,0,0,1,1.48.74Z"/><path d="M27.46,35a2.71,2.71,0,0,1-1.41-1.13,2.35,2.35,0,1,1,3.11.91L28.7,35Z"/><path d="M15.93,35a2.4,2.4,0,0,1-1.78-2.31,2.35,2.35,0,0,1,1.94-2.33A2.38,2.38,0,0,1,18.73,32a2.33,2.33,0,0,1-1.06,2.79,5.67,5.67,0,0,1-.61.28Z"/></svg>