<svg id="Capa_1" data-name="Capa 1" xmlns="http://www.w3.org/2000/svg" viewBox="0 0 44.99 44.99"><path d="M31.25,22.58a3.67,3.67,0,0,1-1.17,2.58c-1.11,1.08-2.19,2.18-3.29,3.28L21,34.26a3.35,3.35,0,1,1-4.89-4.58c2.19-2.22,4.4-4.41,6.61-6.61.57-.57.57-.58,0-1.14-2.22-2.22-4.46-4.42-6.65-6.66a3.33,3.33,0,0,1,1.24-5.51,3.23,3.23,0,0,1,3,.4,5,5,0,0,1,.7.6c3,3,5.95,6,8.94,8.93A3.93,3.93,0,0,1,31.25,22.58Zm-2.11-.06a1.87,1.87,0,0,0-.73-1.83c-.58-.53-1.11-1.11-1.67-1.67l-7.15-7.2a1.59,1.59,0,0,0-1.74-.48,1.61,1.61,0,0,0-1.11,1.3,1.83,1.83,0,0,0,.69,1.69l7.27,7.26c.74.74.74,1.07,0,1.81l-7.09,7.09a4.37,4.37,0,0,0-.54.6,1.65,1.65,0,0,0,1,2.61A1.8,1.8,0,0,0,19.83,33c2.89-2.94,5.78-5.89,8.69-8.82A1.85,1.85,0,0,0,29.14,22.52Z"/></svg>