<svg id="Capa_1" data-name="Capa 1" xmlns="http://www.w3.org/2000/svg" viewBox="0 0 44.99 44.99"><path d="M24.33,8.29A14.83,14.83,0,1,1,9.46,23,14.81,14.81,0,0,1,24.33,8.29ZM17.91,25.13h3.37c.94,0,1,0,1,1,0,2.24,0,4.49,0,6.74,0,.57.16.83.76.8.83,0,1.66,0,2.48,0,.64,0,.81-.23.81-.83,0-2.25,0-4.5,0-6.75,0-.73.26-.95,1-.94,2.25,0,4.5,0,6.75,0,.62,0,.85-.21.81-.83a20,20,0,0,1,0-2.32c0-.69-.2-.92-.89-.91-2.23,0-4.45,0-6.68,0-.7,0-1-.21-1-.94,0-2.25,0-4.5,0-6.75,0-.6-.17-.87-.81-.83a21.35,21.35,0,0,1-2.4,0c-.67,0-.86.23-.85.87,0,2.22,0,4.45,0,6.67,0,.93,0,1-1,1-2.22,0-4.45,0-6.67,0-.58,0-.89.12-.85.79,0,.84,0,1.7,0,2.55,0,.51.18.72.7.71C15.61,25.12,16.76,25.13,17.91,25.13Z"/></svg>