<svg id="Capa_1" data-name="Capa 1" xmlns="http://www.w3.org/2000/svg" viewBox="0 0 44.99 44.99"><path d="M29.11,18.34a10,10,0,0,1-1.88,6.1c-.23.31-.22.51.07.74a2.06,2.06,0,0,1,.3.29.51.51,0,0,0,.58.19,2.11,2.11,0,0,1,2,.6q3.64,3.64,7.3,7.3a2.09,2.09,0,0,1,.34,2.51c-.75,1.34-2.1,2-3.39,1.2a2.22,2.22,0,0,1-.49-.38l-7.11-7.1a2.19,2.19,0,0,1-.69-2.07.59.59,0,0,0-.22-.64c-.61-.57-.6-.58-1.29-.11a10,10,0,1,1,.8-16.08A9.71,9.71,0,0,1,29.11,18.34Zm-2.36.31a7.65,7.65,0,1,0-7.65,7.63A7.61,7.61,0,0,0,26.75,18.65Z"/></svg>