<svg id="Capa_1" data-name="Capa 1" xmlns="http://www.w3.org/2000/svg" viewBox="0 0 44.99 44.99"><path d="M37.91,12.33a7.26,7.26,0,0,0-1.21,2c-1.49,2.64-3,5.28-4.4,8a3.28,3.28,0,0,1-3.2,1.89c-3.42,0-6.84,0-10.26,0a1,1,0,0,0-1.11.68c-.25.56-.57,1.09-.85,1.63s-.09.61.36.63H34c.91,0,.92,0,.93.91,0,.52,0,1.05,0,1.57s-.22.79-.77.74c-.23,0-.46,0-.69,0H16.72a3.27,3.27,0,0,1-3-5.09c.53-.93,1.07-1.85,1.63-2.77a1,1,0,0,0,0-1Q12.9,16,10.37,10.7a.67.67,0,0,0-.7-.41c-.66,0-1.33,0-2,0-.43,0-.62-.17-.6-.61,0-.66,0-1.32,0-2,0-.42.13-.62.59-.61h4.1a.69.69,0,0,1,.72.5c.27.63.58,1.24.82,1.88a1,1,0,0,0,1,.67c2.78,0,5.56,0,8.35,0,4.42,0,8.84,0,13.26,0a2,2,0,0,1,2,1Z"/><path d="M30.93,37.91a3.71,3.71,0,0,1-1.88-1.5,3.13,3.13,0,1,1,4.14,1.2c-.2.11-.41.2-.62.3Z"/><path d="M15.61,37.91a3.18,3.18,0,0,1-2.37-3.08,3.13,3.13,0,0,1,2.58-3.09,3.16,3.16,0,0,1,3.51,2.09,3.09,3.09,0,0,1-1.41,3.7c-.26.15-.54.26-.8.38Z"/></svg>