<svg id="Capa_1" data-name="Capa 1" xmlns="http://www.w3.org/2000/svg" viewBox="0 0 44.99 44.99"><path d="M9.83,24.05A14.85,14.85,0,1,1,24.65,38.87,14.83,14.83,0,0,1,9.83,24.05Zm20.76,8.74c.25,0,.35-.16.47-.28.66-.66,1.29-1.34,2-2,.43-.39.46-.63,0-1.06-1.65-1.6-3.25-3.26-4.9-4.86-.47-.46-.5-.73,0-1.19,1.67-1.62,3.29-3.29,5-4.92.37-.37.41-.59,0-1-.68-.62-1.34-1.28-2-2-.36-.4-.59-.36-.95,0-1.63,1.66-3.3,3.28-4.92,5-.47.49-.74.44-1.19,0-1.58-1.64-3.23-3.21-4.81-4.85-.47-.5-.74-.47-1.17,0a18.07,18.07,0,0,1-1.75,1.75c-.46.41-.48.67,0,1.12,1.66,1.6,3.25,3.26,4.9,4.86.44.43.48.69,0,1.14-1.69,1.64-3.33,3.32-5,5-.34.34-.39.56,0,.9.69.63,1.35,1.28,2,2,.38.43.62.38,1,0,1.63-1.67,3.3-3.29,4.92-5,.45-.46.71-.42,1.14,0,1.62,1.66,3.28,3.3,4.93,4.94C30.32,32.56,30.47,32.68,30.59,32.79Z"/></svg>