<svg id="Capa_1" data-name="Capa 1" xmlns="http://www.w3.org/2000/svg" viewBox="0 0 44.99 44.99"><path d="M37.19,24.69a2.44,2.44,0,0,1-.35.43q-3.41,3.39-6.79,6.79l-.2.19a.55.55,0,0,1-.82,0c-.58-.55-1.14-1.11-1.69-1.68a.58.58,0,0,1,.07-.9c1-1,1.92-1.93,2.89-2.89a1.72,1.72,0,0,1,.23-.17.53.53,0,0,0-.35-.06H16.73a1.35,1.35,0,0,1-.35,0,.55.55,0,0,1-.46-.61c0-.84,0-1.68,0-2.51,0-.46.24-.64.73-.64H30.46c0-.13-.1-.17-.16-.24l-2.84-2.83c-.4-.41-.41-.68,0-1.08s1-1,1.45-1.46A.63.63,0,0,1,30,17l7,7a2,2,0,0,1,.25.32Z"/><path d="M11.18,24.5c0-3.93,0-7.86,0-11.78,0-.72.33-.83.84-.83H27.36a.84.84,0,0,1,.6.16.65.65,0,0,1,.21.53V14.3c0,.5-.22.71-.72.71H14.64c-.38,0-.38,0-.38.37V33.61c0,.36,0,.36.36.36H27.37c.62,0,.8.18.8.8v1.6a.63.63,0,0,1-.69.72H11.89c-.52,0-.71-.22-.71-.74Z"/></svg>