<svg id="Capa_1" data-name="Capa 1" xmlns="http://www.w3.org/2000/svg" viewBox="0 0 44.99 44.99"><path d="M12.56,35.35H10.67c-.38,0-.6-.11-.59-.54,0-1.32,0-2.65,0-4a.94.94,0,0,1,.37-.69q6.63-6.64,13.27-13.29c.34-.34.56-.31.88,0q2,2,4,4c.34.33.34.55,0,.88Q21.91,28.34,15.28,35a1.12,1.12,0,0,1-.9.36C13.78,35.33,13.17,35.35,12.56,35.35Z"/><path d="M28.68,12.43a1.36,1.36,0,0,1,1,.45c1,.95,1.92,1.89,2.86,2.86a1.28,1.28,0,0,1,0,2c-.61.65-1.27,1.26-1.89,1.91-.28.29-.49.31-.78,0-1.36-1.38-2.73-2.74-4.09-4.1-.22-.22-.33-.42-.06-.68.71-.69,1.4-1.4,2.11-2.09A1.2,1.2,0,0,1,28.68,12.43Z"/></svg>