<svg id="Capa_1" data-name="Capa 1" xmlns="http://www.w3.org/2000/svg" viewBox="0 0 44.99 44.99"><path d="M23.29,10c0,1,0,2,0,2.92,0,.2-.13.19-.26.19H12.3a.58.58,0,0,0-.57.67V31c0,.49.2.68.69.68H29.56c.47,0,.69-.21.69-.69,0-2.23,0-4.45,0-6.68a1,1,0,0,1,.31-.74c.86-.83,1.71-1.69,2.56-2.54a2,2,0,0,1,.21-.2c.09.1,0,.2,0,.29q0,5.41,0,10.83a3.11,3.11,0,0,1-2,2.67,3.21,3.21,0,0,1-1.11.2H11.63a3,3,0,0,1-3-2.75c-.11-1.29,0-2.58,0-3.87,0-3.16,0-6.32,0-9.48,0-1.89,0-3.77,0-5.66a3.09,3.09,0,0,1,2.68-3l.09,0Z"/><path d="M27.45,10a1.94,1.94,0,0,1,1,.58c1.5,1.51,3,3,4.52,4.51a1.67,1.67,0,0,1,0,2.23c-1.54,1.52-3.06,3.06-4.59,4.58a1.55,1.55,0,0,1-2.14.19,1.59,1.59,0,0,1-.62-1.31V18c0-.15,0-.26-.2-.24a13.75,13.75,0,0,0-2.39.33,10.76,10.76,0,0,0-6.3,4.39c-.63.9-1.17,1.87-1.77,2.79,0,.06,0,.14-.16.17a3.14,3.14,0,0,1,0-1,10.52,10.52,0,0,1,.81-3.22,11,11,0,0,1,1.87-2.94,10.57,10.57,0,0,1,3.81-2.78,10.19,10.19,0,0,1,2.95-.81,11.32,11.32,0,0,1,1.16-.09c.19,0,.19-.12.19-.26V11.7a1.65,1.65,0,0,1,.57-1.31,1.54,1.54,0,0,1,.75-.36Z"/></svg>