<svg id="Capa_1" data-name="Capa 1" xmlns="http://www.w3.org/2000/svg" viewBox="0 0 44.99 44.99"><path d="M19.55,9.92h2.23c.29,0,.58.06.87.11A13.65,13.65,0,0,1,34.14,25.49a12.88,12.88,0,0,1-2.46,6,13.39,13.39,0,0,1-10.16,5.58,12.58,12.58,0,0,1-5.37-.74A13.7,13.7,0,0,1,7.09,24.62V22.39l0-.15A12.41,12.41,0,0,1,7.82,19a13.52,13.52,0,0,1,8.86-8.5A14,14,0,0,1,19.55,9.92ZM31.68,23.51a11,11,0,1,0-11,11A11,11,0,0,0,31.68,23.51Z"/><path d="M20.65,32a8.15,8.15,0,0,1-6.43-3.21,9.34,9.34,0,0,1-2-4.51c0-.16-.05-.33-.07-.49s0-.17,0-.22.14,0,.2,0c.36.19.72.38,1.09.55a15.93,15.93,0,0,0,5.15,1.47,16.92,16.92,0,0,0,10-1.85c.16-.08.35-.28.49-.2s0,.35,0,.52a9.3,9.3,0,0,1-1.65,4.23,8.5,8.5,0,0,1-4.19,3.23A7.34,7.34,0,0,1,20.65,32Z"/><path d="M17.3,19.36a3,3,0,0,1-.65,1.92,1.31,1.31,0,0,1-2.14,0,3.42,3.42,0,0,1,0-4.05,1.32,1.32,0,0,1,2.13,0A3.19,3.19,0,0,1,17.3,19.36Z"/><path d="M24,19.45a3.21,3.21,0,0,1,.67-2.22,1.3,1.3,0,0,1,2.1,0,3.42,3.42,0,0,1,0,4.07,1.31,1.31,0,0,1-2.13,0A2.91,2.91,0,0,1,24,19.45Z"/></svg>