<svg id="Capa_1" data-name="Capa 1" xmlns="http://www.w3.org/2000/svg" viewBox="0 0 44.99 44.99"><path d="M37,17.28v.8a.35.35,0,0,0,0,.11q-.75,3.3-1.48,6.62c-.57,2.53-1.13,5.07-1.7,7.61a1.6,1.6,0,0,1-1.54,1.37c-.22,0-.43,0-.65,0H10.2c-.23,0-.47,0-.7,0A1.59,1.59,0,0,1,8,32.15V12.82a1.6,1.6,0,0,1,1.5-1.62c.24,0,.49,0,.73,0h18c.29,0,.59,0,.88,0a1.61,1.61,0,0,1,1.44,1.4,9.62,9.62,0,0,1,0,1.42c0,.26.08.38.36.36h1a1.66,1.66,0,0,1,1.78,1.44.22.22,0,0,0,.26.19h1.08A1.69,1.69,0,0,1,37,17.28ZM9.67,22.48v9.37c0,.18.08.26.26.25.33,0,.66,0,1,0s.31-.1.35-.31L12,28.65c.81-3.71,1.64-7.43,2.44-11.15A1.79,1.79,0,0,1,16.3,16c3,0,6,0,9.05,0,.22,0,.34,0,.38-.29a1.59,1.59,0,0,1,1.42-1.3,11.07,11.07,0,0,1,1.41,0c.24,0,.35-.08.34-.33s0-.49,0-.73c0-.45,0-.45-.43-.45H10.09c-.42,0-.42,0-.42.43Z"/></svg>