<svg id="Capa_1" data-name="Capa 1" xmlns="http://www.w3.org/2000/svg" viewBox="0 0 44.99 44.99"><path d="M8.77,17.74c1-.65,2.14-.55,3.22-.74,1.77-.3,3.56-.52,5.34-.76a1.07,1.07,0,0,0,.85-.67c1-2.13,2.09-4.24,3.14-6.36.08-.16.16-.33.25-.49.19-.34.4-.69.84-.7s.7.36.89.72c1.12,2.25,2.24,4.48,3.33,6.74a1.25,1.25,0,0,0,1.1.78c2.36.31,4.72.67,7.08,1h.06c.46.11,1,.11,1.2.66s-.25.9-.59,1.24q-2.62,2.57-5.26,5.12a1.1,1.1,0,0,0-.35,1.12c.43,2.37.83,4.74,1.23,7.1a.13.13,0,0,1,0,.06c0,.5.21,1.06-.27,1.42s-1,0-1.41-.22q-3.19-1.66-6.38-3.37a1.14,1.14,0,0,0-1.23,0c-2.07,1.11-4.15,2.2-6.22,3.29l-.49.25c-1,.46-1.54.1-1.4-1,.26-1.84.6-3.66.91-5.5.11-.69.21-1.4.37-2.08a1,1,0,0,0-.33-1.08c-1.74-1.66-3.46-3.35-5.18-5a4.65,4.65,0,0,1-.71-.82Z"/></svg>