<svg id="Capa_1" data-name="Capa 1" xmlns="http://www.w3.org/2000/svg" viewBox="0 0 44.99 44.99"><g id="AbK7wB.tif"><path d="M34.64,17c0,5.75,0,11.51,0,17.27,0,.34-.09.41-.42.41H12a2.35,2.35,0,0,1-1.66-2.28q0-9.85,0-19.72a2.21,2.21,0,0,1,2.28-2.28c.9,0,1.8,0,2.69,0,.49,0,.62.18.61.64,0,1.09,0,2.19,0,3.28a2,2,0,0,0,2.13,2.15q4.44,0,8.88,0a2,2,0,0,0,2.16-2.17c0-.78,0-1.55,0-2.32,0-.15-.08-.37.11-.43s.27.14.38.25q2.26,2.26,4.52,4.54A2.72,2.72,0,0,1,34.64,17ZM22.56,30.76h6.78c1,0,1.48-.46,1.48-1.49,0-2.06,0-4.13,0-6.19,0-1.07-.47-1.55-1.54-1.55H15.77c-1.1,0-1.56.47-1.56,1.58,0,2,0,4,0,6,0,1.21.4,1.62,1.62,1.62Z"/><path d="M22.57,10.35c1.47,0,2.94,0,4.41,0,.45,0,.6.15.59.6,0,1.07,0,2.15,0,3.23a.66.66,0,0,1-.75.76H18.21a.66.66,0,0,1-.75-.77c0-1.09,0-2.18,0-3.28,0-.39.14-.54.53-.53Z"/><path d="M22.52,25.2H17.19c-.7,0-1.09-.3-1.1-.83s.41-.87,1.13-.87H28a.88.88,0,0,1,.92.86.85.85,0,0,1-.94.82H22.52Z"/><path d="M22.53,28.43c-1.26,0-2.52,0-3.77,0-.65,0-1.05-.32-1.05-.83s.39-.86,1-.86h7.54c.64,0,1.05.35,1.06.85s-.4.85-1.08.85C25,28.44,23.77,28.43,22.53,28.43Z"/></g></svg>