<svg id="Capa_1" data-name="Capa 1" xmlns="http://www.w3.org/2000/svg" viewBox="0 0 44.99 44.99"><g id="rRezvN"><path d="M31.59,23.05q0,2.77,0,5.55c0,1.65-.43,2.29-1.51,2.29s-1.59-.7-1.59-2.24q0-5.66,0-11.31c0-1.63.54-2.3,1.67-2.25.92,0,1.42.69,1.43,2C31.61,19.06,31.59,21.06,31.59,23.05Z"/><path d="M14.41,23.05c0,1.85,0,3.69,0,5.54,0,1.58-.5,2.29-1.54,2.31s-1.56-.66-1.56-2.25c0-3.81,0-7.61,0-11.42,0-1.45.49-2.13,1.48-2.14s1.59.61,1.61,2.09c0,1.95,0,3.91,0,5.87Z"/><path d="M21.36,24.32c-2,0-3.95,0-5.92,0-.75,0-.82-.47-.79-1.27s-.13-1.45.75-1.44q6,.07,12.09,0c1,0,.69.85.75,1.54s-.14,1.17-.79,1.16C25.42,24.3,23.39,24.32,21.36,24.32Z"/><path d="M11.19,23c0,1.48,0,3,0,4.45,0,1.27-.39,1.83-1.13,1.82s-1.12-.67-1.12-1.85q0-4.45,0-8.9c0-1.1.44-1.77,1.09-1.79s1.14.66,1.16,1.81C11.21,20,11.19,21.5,11.19,23Z"/><path d="M34,23c0,1.45,0,2.9,0,4.35,0,1.26-.46,2-1.16,1.92s-1.08-.7-1.09-1.92q0-4.35,0-8.7c0-1.24.47-2,1.17-1.92S34,17.44,34,18.63C34,20.08,34,21.53,34,23Z"/><path d="M8.86,23c0,.25,0,.61-.09,1-.08.54-.29.93-.74.95s-.76-.28-.87-.89a5.22,5.22,0,0,1-.06-1.93c.12-.66.35-1.14.92-1.1s.73.6.8,1.25C8.84,22.49,8.84,22.71,8.86,23Z"/><path d="M34,23c0-.32,0-.69.09-1,.09-.54.31-.91.76-.92s.7.24.85.79a5,5,0,0,1,0,2.14c-.11.65-.38,1-.89,1s-.68-.49-.76-1.06C34.06,23.61,34.05,23.32,34,23Z"/></g></svg>