<svg id="Capa_1" data-name="Capa 1" xmlns="http://www.w3.org/2000/svg" viewBox="0 0 44.99 44.99"><path d="M22.51,29.72h-10c-.88,0-.89,0-.89.9,0,.7,0,1.39,0,2.08,0,.47-.15.67-.63.66-2.32,0-1.91.29-1.91-1.84C9,26.31,9,21.1,9,15.89c0-.9,0-.9.9-.9,1.64,0,1.64,0,1.64,1.64,0,2.83,0,5.67,0,8.5,0,.57.12.8.75.79,2.73,0,5.45,0,8.18,0,.56,0,.74-.16.74-.74,0-2.33,0-4.67,0-7,0-.63.21-.83.82-.82,2.92,0,5.84,0,8.76,0A5,5,0,0,1,36,22.59c0,3.31,0,6.62,0,9.93,0,.66-.2.87-.85.85-2,0-1.67.23-1.7-1.67,0-.43,0-.86,0-1.29s-.2-.7-.71-.7c-3.07,0-6.15,0-9.22,0Z"/><path d="M16.39,24.81a3.74,3.74,0,0,1-3.71-3.72,3.72,3.72,0,1,1,7.44,0A3.69,3.69,0,0,1,16.39,24.81Z"/></svg>