<svg id="Capa_1" data-name="Capa 1" xmlns="http://www.w3.org/2000/svg" viewBox="0 0 44.99 44.99"><path d="M4.06,24.84V19.92c0-1,.26-1.2,1.22-1.2H8.44A.83.83,0,0,0,9,18.49c1.88-1.64,3.73-3.3,5.65-4.9a4.64,4.64,0,0,1,5-.76c2.21.91,4.39,1.91,6.57,2.9A2.83,2.83,0,0,1,27.81,19,2.87,2.87,0,0,1,25,21.23a3.83,3.83,0,0,1-1.4-.37c-1.1-.47-2.21-.93-3.31-1.42-.28-.12-.39-.06-.51.21A7.87,7.87,0,0,1,14,24.21a.83.83,0,0,1-1.07-.89c0-.39.26-.62.75-.73a6.34,6.34,0,0,0,4.9-4.49.83.83,0,0,1,1.26-.61c1.11.46,2.21.94,3.31,1.41.42.18.85.37,1.28.54a1.26,1.26,0,0,0,1.73-.6,1.22,1.22,0,0,0-.73-1.67c-1.71-.78-3.43-1.54-5.15-2.31l-1-.43a3.39,3.39,0,0,0-3.8.56l-4.85,4.25c-.25.21-.49.45-.75.65a.8.8,0,0,0-.33.72q0,4.13,0,8.25c0,.49,0,.49.48.49h4.76a.87.87,0,0,1,.89.47.78.78,0,0,1-.46,1.1,1.64,1.64,0,0,1-.54.07H5.15c-.79,0-1.09-.3-1.09-1.09Zm1.64,0c0,1.37,0,2.74,0,4.11,0,.29.09.42.4.41.5,0,1,0,1.5,0,.27,0,.37-.09.36-.36q0-4.12,0-8.25c0-.28-.09-.4-.38-.39q-.74,0-1.47,0c-.32,0-.42.1-.42.42C5.71,22.13,5.7,23.49,5.7,24.84Z"/><path d="M32.08,25.79a4.17,4.17,0,1,1,4.2-4.17A4.2,4.2,0,0,1,32.08,25.79Z"/><path d="M27.8,31c-2.42,0-4.84,0-7.26,0a3.39,3.39,0,0,1-3.39-2.56,10.58,10.58,0,0,1-.09-2.81.79.79,0,0,1,1.55-.08,2.84,2.84,0,0,1,.06.51v1.5a1.74,1.74,0,0,0,1.81,1.8H35.14c.75,0,1.15.3,1.14.84s-.41.8-1.15.8Z"/><path d="M31.59,12.25H35.4a.82.82,0,0,1,.77.42.76.76,0,0,1,0,.83.9.9,0,0,1-.82.39H28.06a2.58,2.58,0,0,1-.48,0,.8.8,0,0,1,.13-1.6h3.88Z"/><path d="M22.48,27.33a1.56,1.56,0,0,1-1.55-1.6,1.59,1.59,0,0,1,1.56-1.57,1.64,1.64,0,0,1,1.61,1.62A1.58,1.58,0,0,1,22.48,27.33Z"/></svg>