<svg id="Capa_1" data-name="Capa 1" xmlns="http://www.w3.org/2000/svg" viewBox="0 0 44.99 44.99"><path d="M24.83,8.17c2,2,4,4,6,6a2,2,0,0,1,.65,1.56c0,5.26,0,10.52,0,15.77a2.93,2.93,0,0,1-1.2,2.55,2.57,2.57,0,0,1-1.53.52H14.08a2.79,2.79,0,0,1-2.73-2.76c0-.37,0-.74,0-1.11,0-.14,0-.19-.2-.2a1.17,1.17,0,0,1-1.23-1.32c0-1.94,0-3.88,0-5.83a7,7,0,0,1,0-1,1.12,1.12,0,0,1,1.09-1c.26,0,.31-.09.31-.33,0-3.35,0-6.71,0-10.07A2.8,2.8,0,0,1,13.62,8.2l.12,0ZM21.39,32.8h7.17a1.1,1.1,0,0,0,.64-.15,1.13,1.13,0,0,0,.51-1q0-3.45,0-6.88,0-4.45,0-8.91c0-.25-.07-.33-.32-.32l-3,0a2.16,2.16,0,0,1-1.75-.73,2.24,2.24,0,0,1-.46-1.47c0-1.06,0-2.13,0-3.19,0-.2-.06-.28-.27-.27-.63,0-1.27,0-1.9,0-1.36,0-2.72,0-4.08,0H14.17a1,1,0,0,0-1,.87A8.85,8.85,0,0,0,13.09,12c0,.76,0,1.51,0,2.27s0,1.54,0,2.31,0,1.49,0,2.24.05,1.47,0,2.21c0,.36,0,.37.36.37h13a1.16,1.16,0,0,1,1.25,1.25c0,2.21,0,4.43,0,6.64a1.23,1.23,0,0,1-1.28,1.27c-4.31,0-8.63,0-12.94,0h-.23c-.14,0-.19,0-.18.18a5.31,5.31,0,0,1,0,.8,1.16,1.16,0,0,0,1.26,1.33C16.7,32.78,19,32.8,21.39,32.8Zm-4.33-6.73c0,.69,0,1.39,0,2.08,0,.19.06.25.25.27a7.77,7.77,0,0,0,1.6,0,2.46,2.46,0,0,0,1.87-.93,2.63,2.63,0,0,0,.44-1.64,2,2,0,0,0-1.49-2,6.09,6.09,0,0,0-2.37-.1c-.25,0-.3.13-.3.35C17.07,24.75,17.06,25.41,17.06,26.07Zm-3.62,2.34h.2c.34,0,.34,0,.34-.35s0-.74,0-1.1c0-.19.07-.26.26-.25a2.75,2.75,0,0,0,1-.11A1.45,1.45,0,0,0,16.3,25a1.37,1.37,0,0,0-1.19-1.23,6.86,6.86,0,0,0-1.92,0c-.21,0-.26.11-.26.31,0,1.29,0,2.57,0,3.86C12.94,28.47,12.85,28.4,13.44,28.41ZM22,26.06c0,.53,0,1.06,0,1.59,0,.25-.12.57.05.72s.48,0,.72,0,.24-.07.24-.24c0-.48,0-1,0-1.44,0-.17.07-.23.23-.23s.6,0,.9,0c.67,0,.57.13.58-.61,0-.17-.05-.23-.22-.23-.4,0-.79,0-1.19,0-.24,0-.32-.09-.3-.32a3.09,3.09,0,0,0,0-.43c0-.38,0-.38.38-.38s.54,0,.8,0c.74,0,.62.13.64-.64,0-.16,0-.2-.2-.2-.81,0-1.62,0-2.43,0-.17,0-.21.05-.21.22C22,24.63,22,25.34,22,26.06Z"/><path d="M18.1,26.05c0-.45,0-.89,0-1.34,0-.12,0-.23.16-.25a1.46,1.46,0,0,1,1.8,1,1.8,1.8,0,0,1-.4,1.77,1.68,1.68,0,0,1-1.39.41c-.15,0-.17-.12-.17-.24V26.05Z"/><path d="M14,25.2v-.56c0-.11,0-.19.15-.19a2.57,2.57,0,0,1,.62,0,.66.66,0,0,1,.54.55.71.71,0,0,1-.31.76,1.09,1.09,0,0,1-.86.15c-.11,0-.14-.08-.14-.18V25.2Z"/></svg>