<svg id="Capa_1" data-name="Capa 1" xmlns="http://www.w3.org/2000/svg" viewBox="0 0 44.99 44.99"><path d="M40.9,23.18A17,17,0,1,1,23.9,6.1,17,17,0,0,1,40.9,23.18ZM34,23.35a9.71,9.71,0,0,0-.89-4.4,10,10,0,0,0-10.81-5.76,2.15,2.15,0,0,1-1.32-.13,5.26,5.26,0,0,0-6,1.14,5.33,5.33,0,0,0-1.14,6.05,1.62,1.62,0,0,1,.14,1,9.93,9.93,0,0,0-.1,3.22,10.11,10.11,0,0,0,10.37,8.78,9.85,9.85,0,0,1,3.41.24A4.91,4.91,0,0,0,33,32,5.16,5.16,0,0,0,34,26.35a2.5,2.5,0,0,1-.19-1.63A6,6,0,0,0,34,23.35Z"/><path d="M24.05,30.15c-1.84,0-3.63-.22-5-1.63a3.9,3.9,0,0,1-1.09-2,1.43,1.43,0,0,1,.88-1.74,1.53,1.53,0,0,1,1.92.62A9.15,9.15,0,0,0,21.67,27a3.5,3.5,0,0,0,4.38,0,1.18,1.18,0,0,0-.31-2,8.64,8.64,0,0,0-2.53-.78,9.93,9.93,0,0,1-3.58-1.29A3.4,3.4,0,0,1,20.09,17a8.14,8.14,0,0,1,7-.15,3.5,3.5,0,0,1,2,2.08,1.59,1.59,0,0,1-.67,2,1.55,1.55,0,0,1-2-.57,1.81,1.81,0,0,1-.22-.32c-.81-1.68-2.44-1.67-3.85-1.22a1.15,1.15,0,0,0-.91,1c0,.57.39.83.82,1.05a7.57,7.57,0,0,0,1.8.52,16.77,16.77,0,0,1,3.6,1.08A3.43,3.43,0,0,1,29.83,26a3.94,3.94,0,0,1-2.61,3.55A6.88,6.88,0,0,1,24.05,30.15Z"/></svg>