<svg id="Capa_1" data-name="Capa 1" xmlns="http://www.w3.org/2000/svg" viewBox="0 0 44.99 44.99"><defs><style>.cls-1{fill:#fff;}.cls-2{fill:#f6f6f6;opacity:0.81;}</style></defs><circle cx="21.94" cy="23.71" r="17.06"/><path class="cls-1" d="M26.3,21.15H32a1,1,0,0,1,1,1v5.19a3.58,3.58,0,0,1-3.58,3.58h0a3.58,3.58,0,0,1-3.58-3.58V21.66a.51.51,0,0,1,.51-.51Z"/><circle class="cls-1" cx="30.15" cy="17.81" r="2.31"/><circle class="cls-2" cx="22.97" cy="16.79" r="3.33"/><path class="cls-2" d="M27.41,21.15H18a1,1,0,0,0-.94,1v5.92A5.79,5.79,0,0,0,22.71,34a5.78,5.78,0,0,0,5.64-5.92V22.13A1,1,0,0,0,27.41,21.15Z"/><path class="cls-1" d="M11.86,18.07h9.4a.94.94,0,0,1,.94.94v9.4a.94.94,0,0,1-.94.94h-9.4a.94.94,0,0,1-.94-.94V19A.94.94,0,0,1,11.86,18.07Z"/><path d="M19,21.65H17.15v5.12H16V21.65H14.08v-1h5Z"/></svg>