<svg id="Capa_1" data-name="Capa 1" xmlns="http://www.w3.org/2000/svg" viewBox="0 0 44.99 44.99"><path d="M23,6A17.06,17.06,0,1,1,5.87,23.09,17.06,17.06,0,0,1,23,6Zm10.1,8.31-1.58,1a.82.82,0,0,1-1.14-.19,4.6,4.6,0,0,0-7.83,4.14c.09.44,0,.58-.46.55a12.44,12.44,0,0,1-5.25-1.55,14.17,14.17,0,0,1-3.71-2.92c-.32-.35-.52-.32-.66.14a4.92,4.92,0,0,0-.28,1.33,5.07,5.07,0,0,0,1.43,3.71c.11.12.31.24.22.43s-.34.14-.52.1c-.4-.09-.78-.21-1.26-.35a3.94,3.94,0,0,0,.54,1.94,4.84,4.84,0,0,0,2.63,2.2c.13,0,.34.05.3.26s-.2.13-.32.17a3.61,3.61,0,0,1-1.4,0,4.79,4.79,0,0,0,3.48,3c.19,0,.51,0,.56.21s-.26.37-.45.49a9.53,9.53,0,0,1-3.17,1.28c-.67.14-1.36.08-2.08.19a1.53,1.53,0,0,0,.15.19,3,3,0,0,0,.33.21A12.93,12.93,0,0,0,31.71,19.63a1.81,1.81,0,0,1,.6-1.49c.37-.33.69-.71,1-1.08.1-.11.24-.23.15-.39s-.27-.08-.4,0-.54.17-.81.22-.44.25-.6,0,.1-.35.19-.52Z"/></svg>