<svg id="Capa_1" data-name="Capa 1" xmlns="http://www.w3.org/2000/svg" viewBox="0 0 44.99 44.99"><path d="M22.31,40.18A17,17,0,1,1,39.37,23.39,17,17,0,0,1,22.31,40.18Zm-9-10.9a10.68,10.68,0,0,0,7.37,1.4,10.92,10.92,0,0,0,9.15-10.84,1,1,0,0,1,.46-1,5.29,5.29,0,0,0,1.31-1.42,6.41,6.41,0,0,1-2.06.43,4.22,4.22,0,0,0,1.62-2,10.72,10.72,0,0,1-1.85.71.75.75,0,0,1-.79-.18,3.82,3.82,0,0,0-6.25,2,5,5,0,0,0-.05,1.5c0,.23,0,.29-.27.27a10.4,10.4,0,0,1-1.25-.15,11,11,0,0,1-6.26-3.53c-.23-.26-.32-.27-.46.07A3.83,3.83,0,0,0,15.06,21c.1.09.27.15.28.36a3,3,0,0,1-1.2-.22c-.47-.15-.52-.12-.43.36a3.72,3.72,0,0,0,2,2.74c.33.18.68.3,1.08.47a2.53,2.53,0,0,1-1.22.2c-.41,0-.45.07-.25.43a3.79,3.79,0,0,0,3,2.05c.1,0,.25,0,.28.11s-.11.19-.19.25a7.87,7.87,0,0,1-2.25,1.11A9.28,9.28,0,0,1,13.3,29.28Z"/></svg>