<svg id="Capa_1" data-name="Capa 1" xmlns="http://www.w3.org/2000/svg" viewBox="0 0 44.99 44.99"><path d="M22.83,40.83A17,17,0,1,1,39.86,24,17,17,0,0,1,22.83,40.83Zm-.29-7.7a12.11,12.11,0,0,0,6.34-1.52A9.94,9.94,0,0,0,34,20.46a10.5,10.5,0,0,0-5.5-6.63,12.39,12.39,0,0,0-14.88,2.71,9.39,9.39,0,0,0-2.33,6.77,9.77,9.77,0,0,0,3.83,7.23,1,1,0,0,1,.4.95c-.06.95-.08,1.9-.14,2.85,0,.53.09.68.59.35.9-.59,1.83-1.15,2.74-1.73a1.09,1.09,0,0,1,1-.18A9.69,9.69,0,0,0,22.54,33.13Z"/><path d="M29.92,21c-1.94,1.87-3.83,3.68-5.7,5.5-.27.26-.47.2-.71,0-.68-.68-1.39-1.31-2-2a.62.62,0,0,0-.88-.15c-1.46.72-2.92,1.42-4.38,2.12-.15.08-.31.14-.48.22-.11-.25.07-.35.18-.45,1.78-1.71,3.57-3.41,5.33-5.13.33-.31.53-.24.8.05.6.62,1.24,1.21,1.83,1.84a.86.86,0,0,0,1.19.2c1.38-.71,2.79-1.37,4.2-2C29.44,21,29.61,20.85,29.92,21Z"/></svg>