<svg id="Capa_1" data-name="Capa 1" xmlns="http://www.w3.org/2000/svg" viewBox="0 0 44.99 44.99"><defs><style>.cls-1{fill:#fff;}</style></defs><circle cx="22.2" cy="22.7" r="17.06"/><path class="cls-1" d="M32.4,27.67a3.18,3.18,0,0,1-.77,1.57,2.86,2.86,0,0,1-2.1,1c-1.53,0-3.06,0-4.6,0H15a3,3,0,0,1-3-3V19.66c0-.08,0-.17,0-.21s.14,0,.2.08L20,24.27c.49.3,1,.59,1.48.9a1.25,1.25,0,0,0,1.42,0l9.35-5.71.13-.07Z"/><path class="cls-1" d="M22.21,15.16h7.32a3.05,3.05,0,0,1,2.77,2.23c0,.16,0,.21-.15.27l-3.58,2.2c-2.05,1.25-4.1,2.49-6.14,3.75a.37.37,0,0,1-.45,0l-7.19-4.4c-.84-.51-1.67-1-2.51-1.53a.27.27,0,0,1-.15-.37A3,3,0,0,1,15,15.17Z"/></svg>