<svg id="Capa_1" data-name="Capa 1" xmlns="http://www.w3.org/2000/svg" viewBox="0 0 44.99 44.99"><path d="M6.63,29.94a1.56,1.56,0,0,0-1.81-.85,6.25,6.25,0,0,1-1.06,0c-.56,0-.95-.32-.95-.92s.41-.82.92-.88a5.62,5.62,0,0,1,.71,0H40.61a3.94,3.94,0,0,1,.77.06.83.83,0,0,1,.79.85.85.85,0,0,1-.84.89,8,8,0,0,1-1.69,0,1.35,1.35,0,0,0-1.58.85Z"/><path d="M22.91,26.63c-4.77,0-9.53,0-14.3,0-.47,0-.6-.16-.62-.61-.27-6.62,5.08-13,11.68-13.81,3.11-.36,6.28-.55,9.28.69A13.69,13.69,0,0,1,37.82,24.7c0,.4.06.8.1,1.2s-.13.73-.72.73c-4.76,0-9.53,0-14.29,0ZM20.42,13.82a10.43,10.43,0,0,0-7.13,3.6,12.3,12.3,0,0,0-2.72,7.22c0,.25,0,.52.32.54s.33-.27.36-.51c.06-.54.07-1.08.17-1.61a10.32,10.32,0,0,1,3.52-6.35,10.76,10.76,0,0,1,5.57-2.22c.27,0,.66,0,.61-.4S20.73,13.85,20.42,13.82Z"/><path d="M22.83,11.26a4.38,4.38,0,0,1-1.4-.12,1.55,1.55,0,0,1,.28-3,15.5,15.5,0,0,1,2.26,0,1.52,1.52,0,0,1,1.37,1.39,1.57,1.57,0,0,1-1.11,1.63A4.71,4.71,0,0,1,22.83,11.26Z"/></svg>