<svg id="Capa_1" data-name="Capa 1" xmlns="http://www.w3.org/2000/svg" viewBox="0 0 44.99 44.99"><path d="M19.39,5.59h4.05l.29.08A16.75,16.75,0,0,1,38.09,25.13c-1.15,7-5.31,11.65-12.09,13.55s-12.67,0-17.4-5.21a16.61,16.61,0,0,1-4-9v-4l.12-.66A16.8,16.8,0,0,1,12,8.38,17.25,17.25,0,0,1,19.39,5.59ZM33.26,22.44A11.85,11.85,0,1,0,21.41,34.28,11.82,11.82,0,0,0,33.26,22.44Z"/><path d="M24.33,19.61c0,1.47,0,2.94,0,4.41,0,1.05-.25,1.3-1.27,1.32q-3,0-6.06,0c-1,0-1.24-.26-1.25-1.32v-.37c0-1.08.23-1.3,1.33-1.31h3.22c1,0,1,0,1-1,0-2,0-4,0-6.06,0-1.12.25-1.34,1.39-1.34,1.36,0,1.6.17,1.62,1.34C24.35,16.71,24.33,18.16,24.33,19.61Z"/></svg>