<svg id="Capa_1" data-name="Capa 1" xmlns="http://www.w3.org/2000/svg" viewBox="0 0 44.99 44.99"><g id="EbF527"><path d="M21.92,13a18.73,18.73,0,0,1,6.91,1.22,19.74,19.74,0,0,1,6.09,3.59c.66.57,1.27,1.18,1.87,1.8a2.14,2.14,0,0,1-2.89,3.14c-.46-.39-.87-.85-1.31-1.26a15.66,15.66,0,0,0-4.36-2.88,16,16,0,0,0-4.69-1.27,14.94,14.94,0,0,0-3.95.08,16,16,0,0,0-3.49.91,16.31,16.31,0,0,0-4.26,2.51c-.88.72-1.63,1.58-2.47,2.33a2,2,0,0,1-2.29.3,2,2,0,0,1-1.22-1.84,2.28,2.28,0,0,1,.74-1.74,23.76,23.76,0,0,1,5.1-4.16,20.16,20.16,0,0,1,4.73-2A18.65,18.65,0,0,1,21.92,13Z"/><path d="M22,20.59a11.85,11.85,0,0,1,6.71,2.08,14.4,14.4,0,0,1,2.83,2.57,2.23,2.23,0,0,1,0,2.89,2.28,2.28,0,0,1-2.84.61,4.62,4.62,0,0,1-1.08-.89,9.48,9.48,0,0,0-2.18-1.7,7.31,7.31,0,0,0-5.15-.66,7.59,7.59,0,0,0-3.73,2.16c-.34.37-.69.73-1.06,1.07A2.28,2.28,0,0,1,13,29.2a2.25,2.25,0,0,1-1.46-2.13,2.3,2.3,0,0,1,.71-1.73,21.07,21.07,0,0,1,2.94-2.64A12.14,12.14,0,0,1,22,20.59Z"/><path d="M21.67,36.69A3.7,3.7,0,1,1,25.41,33,3.64,3.64,0,0,1,21.67,36.69Z"/></g></svg>