<svg id="Capa_1" data-name="Capa 1" xmlns="http://www.w3.org/2000/svg" viewBox="0 0 44.99 44.99"><defs><style>.cls-1{fill:#231f20;}</style></defs><path class="cls-1" d="M28.13,20.12a2.35,2.35,0,0,1-3.1.29A5.07,5.07,0,0,1,23,18.1c-.09-.18-.14-.32-.36-.11-1.25,1.21-2.53,2.39-3.75,3.63a25.26,25.26,0,0,1-4.93,4.06,6.41,6.41,0,0,1-2.9,1,3.19,3.19,0,0,1-1.91-.6,38.79,38.79,0,0,1-5.37-4c-.22-.19-.11-.3,0-.44L7.14,18.8c2-1.75,4.06-3.52,6.12-5.26a43,43,0,0,1,4.12-3.38,6.08,6.08,0,0,1,3.81-1.1c1,.09,2,.26,3,.4l7.92,1.07c.66.09,1.32.17,2,.3a2.1,2.1,0,0,1,1.81,2.3,3.52,3.52,0,0,1-.17,1,1.83,1.83,0,0,1-2.27,1.27c-2.47-.43-5-.74-7.44-1.08a.76.76,0,0,1-.72-.54c-.47-1.31-1.51-1.93-3.28-1.62a5.21,5.21,0,0,0-2.31,1.27L16.9,15.73a2.15,2.15,0,0,0-.72,1,.77.77,0,0,0,.3,1,.7.7,0,0,0,.88-.13l3.74-3.15a3.2,3.2,0,0,1,1.4-.73,1.33,1.33,0,0,1,1.38.48c.1.11.16.24.35.23a3.47,3.47,0,0,1,3,1.46,2.44,2.44,0,0,0,1.72,1,5.35,5.35,0,0,1,4.48,4.93,5.22,5.22,0,0,1-1.63,4.42c-.42.4-.41.42.08.71.29.18.6.33.89.53.47.33.43.68-.09.93l-.69.28a.35.35,0,0,0-.23.52q1,2.73,1.9,5.46c.5,1.42,1,2.83,1.46,4.27a2.89,2.89,0,0,1-.37,2.28.36.36,0,0,1-.56.15c-.76-.43-1.53-.84-2.3-1.26a1.72,1.72,0,0,1-.53-1.35,8.94,8.94,0,0,1,.27-.88.31.31,0,0,0-.19-.44c-.39-.19-.78-.38-1.16-.58a1.12,1.12,0,0,1-.5-1.29c.15-.37.28-.75.46-1.1s.08-.48-.23-.62-.8-.4-1.2-.59c-.19-.09-.27-.22-.14-.41a2.26,2.26,0,0,0,.1-2.46c-.13-.3-.25-.36-.54-.25s-.84.28-1.27.4-.48-.06-.42-.39c.08-.51.15-1,.28-1.53.08-.33-.07-.37-.33-.38A5.29,5.29,0,0,1,23.23,27a5.09,5.09,0,0,1-1.91-3.86,5.53,5.53,0,0,1,1.25-4c.33-.41.33-.42.63,0a4.61,4.61,0,0,0,2.15,1.7,2.3,2.3,0,0,1,.49.32A1.46,1.46,0,0,0,28.13,20.12Zm-1.6-.32a.83.83,0,0,0,.88-.82.41.41,0,0,0-.37-.49,1.61,1.61,0,0,0-1.08.14c-.55.29-.55.3-1-.17a5.85,5.85,0,0,1-.38-.49c-.18-.22-.16-.38.12-.51a8.64,8.64,0,0,1,1.64-.58c.14,0,.33-.07.15-.28a3.2,3.2,0,0,0-1.74-1.13c-.22-.05-.38,0-.42.26a2.07,2.07,0,0,1-.51,1,.45.45,0,0,0-.08.48,3.9,3.9,0,0,0,2.08,2.43A1.64,1.64,0,0,0,26.53,19.8Z"/><path class="cls-1" d="M22.1,8.11c1.39-.31,2.78-.63,4.18-.92a21.47,21.47,0,0,1,3.91-.59c1,0,1.26.12,1.6,1.29a3.66,3.66,0,0,1,.09.81c0,.29-.12.4-.41.38l-2.8-.25L24,8.4l-1.9-.17Z"/></svg>