<svg id="Capa_1" data-name="Capa 1" xmlns="http://www.w3.org/2000/svg" viewBox="0 0 44.99 44.99"><g id="_2OHO4O" data-name="2OHO4O"><path d="M26.19,25.82c.44,0,.88,0,1.32,0s.43.1.45.39a4.72,4.72,0,0,0,.1.64,1.87,1.87,0,0,0,1.55,1.52,3.67,3.67,0,0,0,1.44,0,1.58,1.58,0,0,0,1.35-1.32,1.86,1.86,0,0,0-.68-2,4.32,4.32,0,0,0-.89-.5c-.95-.41-1.88-.87-2.83-1.31a4.9,4.9,0,0,1-2.81-2.78,4.64,4.64,0,0,1,2.9-6l1.12-.34a.36.36,0,0,0,.31-.42c0-.28,0-.56,0-.83s.08-.27.26-.27h1.64c.18,0,.26.09.26.27a8.77,8.77,0,0,1,0,.89c0,.28.08.39.34.45a5.15,5.15,0,0,1,2.49,1.21A4.68,4.68,0,0,1,36,19.08c0,.25-.12.35-.39.35H32.81c-.22,0-.34-.07-.36-.31s-.07-.42-.11-.64A1.88,1.88,0,0,0,30,16.92a1.84,1.84,0,0,0-1.38,2.49,1.69,1.69,0,0,0,.84,1c1.18.65,2.42,1.17,3.64,1.76a5.53,5.53,0,0,1,2,1.5,4.61,4.61,0,0,1,.86,3.41,4.34,4.34,0,0,1-.85,2.35,5.13,5.13,0,0,1-3,1.75c-.8.19-.69,0-.7.85,0,.62,0,.62-.62.62H29.64c-.22,0-.33-.07-.32-.3s0-.44,0-.65-.08-.37-.33-.43a8.13,8.13,0,0,1-2.79-1.19,4.09,4.09,0,0,1-1.79-3.92c0-.27.14-.33.38-.32Z"/><path d="M6.76,24.81a4.26,4.26,0,0,1-1.14-.17c-.18-.05-.33-.14-.31-.35s.15-.28.33-.31a12.74,12.74,0,0,0,5.62-2.7A13.19,13.19,0,0,0,15.34,16c.28-.69.27-.7-.49-.72l-1,0a.54.54,0,0,1-.57-.38.52.52,0,0,1,.22-.62L16.9,11.5l1.27-1A.84.84,0,0,1,19.6,11c.3,1.71.57,3.43.85,5.14.05.3.09.59.15.89a.49.49,0,0,1-.23.58.51.51,0,0,1-.65-.06c-.3-.23-.59-.48-.88-.73l-.1-.08c-.53-.45-.52-.44-.81.18a11.82,11.82,0,0,1-1.87,2.82A16,16,0,0,1,9.17,24.4,7.6,7.6,0,0,1,6.76,24.81Z"/><path d="M23,28.12c0,1.35,0,2.7,0,4.05,0,.68-.29,1-1,1h-2.1a.85.85,0,0,1-1-1c0-2.1,0-4.2,0-6.3,0-1-.08-2-.06-3,0-.82,0-1.65,0-2.47a.82.82,0,0,1,.85-.84q1.17,0,2.34,0c.59,0,.85.35.85,1C22.92,23.05,23,25.59,23,28.12Z"/><path d="M16.75,28.34v3.79c0,.72-.3,1-1,1h-2.1a.83.83,0,0,1-.93-.94q0-3.88,0-7.77a.8.8,0,0,1,.89-.9h2.19a.83.83,0,0,1,.95.94C16.75,25.77,16.75,27.05,16.75,28.34Z"/><path d="M6.47,30.31c0-.63,0-1.26,0-1.89a.79.79,0,0,1,.83-.9c.79,0,1.59,0,2.38,0a.82.82,0,0,1,.82.87c0,1.29,0,2.59,0,3.89a.8.8,0,0,1-.88.86H7.34a.79.79,0,0,1-.87-.89C6.46,31.6,6.47,31,6.47,30.31Z"/></g></svg>