<svg id="Capa_1" data-name="Capa 1" xmlns="http://www.w3.org/2000/svg" viewBox="0 0 44.99 44.99"><path d="M10.57,22.39h3.7c.29,0,.48,0,.47.39s.13.32.4.27a19.73,19.73,0,0,1,5.79-.23,16.28,16.28,0,0,1,5.68,1.59,14.46,14.46,0,0,1,2.93,2,2.88,2.88,0,0,1,.74,1c.08.16.14.18.26,0,.72-.84,1.56-1.57,2.34-2.34a3.12,3.12,0,0,1,4-.29,3.07,3.07,0,0,1,.82,4.1,8.39,8.39,0,0,1-1.24,1.49c-1.1,1.11-2.19,2.23-3.32,3.32A10.94,10.94,0,0,1,27,36.74a12,12,0,0,1-8.1-1.69A7,7,0,0,0,16.39,34a3.54,3.54,0,0,0-1.34-.06.25.25,0,0,0-.22.27c0,.45-.09.89-.11,1.34,0,.24-.11.29-.33.29H6.75c-.23,0-.33-.06-.35-.31a66,66,0,0,1-.3-7.83c0-1.68.13-3.35.3-5,0-.25.15-.28.35-.28Zm15,13A8.78,8.78,0,0,0,27.89,35a8.9,8.9,0,0,0,4.31-2.5c1.26-1.35,2.6-2.62,3.9-3.93a1.8,1.8,0,0,0,.54-1.74,1.61,1.61,0,0,0-2.45-1A40.38,40.38,0,0,0,31,29a2.71,2.71,0,0,0-.56.79,3.21,3.21,0,0,1-3.72,2,23.51,23.51,0,0,1-4.1-1.21c-.19-.06-.22-.15-.15-.32s.23-.56.33-.85.18-.29.43-.2c.69.25,1.39.5,2.1.72a7,7,0,0,0,2.17.41,1.61,1.61,0,0,0,1.49-1,1.58,1.58,0,0,0-.37-1.78,7.68,7.68,0,0,0-.69-.59A14.6,14.6,0,0,0,20,24.19a16.78,16.78,0,0,0-4.79.29c-.28.06-.38.17-.36.46,0,.66.12,1.32.12,2,0,1.13.12,2.27,0,3.4,0,.61,0,1.23-.07,1.85,0,.16,0,.24.22.23a7.71,7.71,0,0,1,4.49,1.31A10.52,10.52,0,0,0,25.61,35.35Z"/><path d="M28.06,23.55a9.3,9.3,0,1,1,9.36-9.29A9.27,9.27,0,0,1,28.06,23.55ZM20.5,14.24a7.62,7.62,0,1,0,8.33-7.57A7.59,7.59,0,0,0,20.5,14.24Z"/><path d="M30.92,11.6c0,.3,0,.6,0,.91s-.07.28-.28.28H29.55a.47.47,0,0,1-.4-.2,1.91,1.91,0,0,0-1.76-.6.64.64,0,0,0-.59.47.59.59,0,0,0,.34.71,3.53,3.53,0,0,0,1.19.34,3.67,3.67,0,0,1,2.07.95,2.08,2.08,0,0,1-.7,3.46,1.45,1.45,0,0,1-.35.12c-.36,0-.65.12-.56.59,0,.13-.08.18-.2.18H27.43a.21.21,0,0,1-.23-.23c0-.15,0-.3,0-.44A.31.31,0,0,0,27,17.8c-.2-.08-.12.11-.17.17a.19.19,0,0,1-.19.08c-.37,0-.75,0-1.13,0-.17,0-.23-.08-.23-.25V16c0-.18.08-.24.25-.24h1.15A.5.5,0,0,1,27,16a2,2,0,0,0,2,.53c.22,0,.44-.14.48-.42a.61.61,0,0,0-.31-.63,4.56,4.56,0,0,0-1.69-.52,3,3,0,0,1-1.83-1,2.12,2.12,0,0,1,1.2-3.37c.3-.09.41-.22.37-.51s.07-.33.31-.32a7.37,7.37,0,0,0,.94,0c.28,0,.38.09.35.36s0,.54.35.62c.06,0,.14.06.16,0,.05-.3.27-.21.44-.21h.87c.22,0,.31.08.3.29S30.92,11.31,30.92,11.6Z"/></svg>