<svg id="Capa_1" data-name="Capa 1" xmlns="http://www.w3.org/2000/svg" viewBox="0 0 44.99 44.99"><path d="M21.4,19H33c.28,0,.36.09.36.36,0,5.39,0,10.79,0,16.19a1.27,1.27,0,0,1-1.23,1.36,9.2,9.2,0,0,1-1,0c-1.35,0-2.7,0-4.05,0-1.71,0-3.42,0-5.13,0-.4,0-.79,0-1.19,0l-4.64,0c-1,0-2,0-3,0l-2.28,0a1.28,1.28,0,0,1-1.33-1.32V19.43c0-.43,0-.43.42-.43H21.4Zm-.91,5.77v-2.2c0-.37-.17-.53-.54-.53H12.62c-.37,0-.57.19-.57.6v10.7c0,.41.15.56.56.56h7.33c.4,0,.55-.16.55-.57s0-.67,0-1V24.78ZM27.91,23c0,.26,0,.53,0,.79a.48.48,0,0,0,.53.52H30a.49.49,0,0,0,.54-.51c0-.54,0-1.07,0-1.6a.49.49,0,0,0-.49-.51c-.55,0-1.09,0-1.63,0a.47.47,0,0,0-.5.52ZM25.76,33h0c0-.28,0-.56,0-.84a.46.46,0,0,0-.46-.48H23.62a.44.44,0,0,0-.47.43,12.63,12.63,0,0,0,0,1.74.4.4,0,0,0,.37.41c.59,0,1.19,0,1.78,0,.29,0,.45-.21.46-.51S25.76,33.26,25.76,33Zm-1.3-3.73h.78a.46.46,0,0,0,.52-.5c0-.53,0-1.06,0-1.6a.46.46,0,0,0-.49-.49c-.54,0-1.08,0-1.63,0a.46.46,0,0,0-.5.49q0,.81,0,1.62a.45.45,0,0,0,.5.48Zm4.76,0h.68c.48,0,.64-.16.64-.64s-.06-.92,0-1.38-.14-.57-.54-.58-1,0-1.54,0a.46.46,0,0,0-.52.5c0,.53,0,1.07,0,1.6a.46.46,0,0,0,.5.49ZM30.51,33h0c0-.29,0-.58,0-.87a.41.41,0,0,0-.45-.44H28.4a.46.46,0,0,0-.49.48c0,.55,0,1.1,0,1.65a.42.42,0,0,0,.46.46h1.68a.42.42,0,0,0,.45-.49ZM25.76,23.7V22.18a.49.49,0,0,0-.55-.55H23.69a.5.5,0,0,0-.55.54c0,.53,0,1.06,0,1.6a.45.45,0,0,0,.48.48c.21,0,1.68,0,1.68,0S25.76,24.26,25.76,23.7Z"/><path d="M31.67,17.07H29.25l-3.88,0-3.28,0c-1.07,0-2.14,0-3.21,0s-1.88,0-2.82,0-2.08,0-3.12,0S11,17,10,17.08a.52.52,0,0,1-.6-.58c0-.4,0-.8,0-1.2a1.85,1.85,0,0,1,1.87-1.73c.19,0,.27.07.26.26s0,.47,0,.7a1.23,1.23,0,0,0,1.18,1.2h1.14a1.23,1.23,0,0,0,1.18-1.19c0-.21,0-.42,0-.63s0-.14,0-.19c.19-.3.49-.1.74-.14s.23.07.23.23v.65a1.25,1.25,0,0,0,1.22,1.27h1.12a1.29,1.29,0,0,0,1.18-1.21c0-.23,0-.45,0-.68s.05-.27.24-.27h3.26c.19,0,.26.08.26.26v.63a1.24,1.24,0,0,0,1.27,1.27h1a1.28,1.28,0,0,0,1.27-1.23c0-.23,0-.46,0-.68s.07-.24.24-.25c.71-.05.71-.05.71.65a1.33,1.33,0,0,0,1.52,1.51H30a1.29,1.29,0,0,0,1.37-1.35,5.42,5.42,0,0,0,0-.57c0-.18.08-.24.25-.24a1.86,1.86,0,0,1,1.74,1.71c0,.4,0,.8,0,1.19s-.17.61-.59.63H31.67Z"/><path d="M28.55,12.88c0-.47,0-.94,0-1.41s.18-.68.69-.69h.84a.45.45,0,0,1,.49.44c0,1.07.09,2.13,0,3.2,0,.39-.21.55-.62.56h-.75c-.45,0-.65-.2-.66-.65s0-1,0-1.46Z"/><path d="M14.32,12.86c0,.49,0,1,0,1.47s-.19.65-.64.66h-.81a.52.52,0,0,1-.57-.58c0-1,0-2,0-3.06a.52.52,0,0,1,.51-.56,3.56,3.56,0,0,1,1,0,.51.51,0,0,1,.49.57C14.33,11.85,14.32,12.36,14.32,12.86Z"/><path d="M24.07,12.86c0-.49,0-1,0-1.47s.14-.57.55-.61a3.7,3.7,0,0,1,.94,0c.34,0,.53.21.53.54q0,1.54,0,3.09a.54.54,0,0,1-.59.57h-.87a.51.51,0,0,1-.56-.58C24.07,13.89,24.07,13.37,24.07,12.86Z"/><path d="M16.8,12.87c0-.5,0-1,0-1.52s.18-.56.57-.56h.89a.51.51,0,0,1,.56.56c0,1,0,2,0,3,0,.42-.2.61-.62.63h-.79a.54.54,0,0,1-.61-.62c0-.5,0-1,0-1.5Z"/></svg>