<svg id="Capa_1" data-name="Capa 1" xmlns="http://www.w3.org/2000/svg" viewBox="0 0 44.99 44.99"><path d="M22.06,19.14c2,0,3.9,0,5.86,0,.43,0,.44,0,.3.41q-3,8.32-6,16.65c0,.13-.05.35-.18.35s-.17-.22-.21-.36q-3-8.31-6-16.65c-.14-.38-.12-.4.28-.4C18.13,19.13,20.1,19.14,22.06,19.14Z"/><path d="M20.87,35.85l-1.44-1.69-6.54-7.7q-3-3.51-6-7c0-.06-.15-.12-.11-.21s.16-.08.26-.08h7.62a.42.42,0,0,1,.44.34L19.23,31l1.62,4.53c0,.1.07.21.11.32Z"/><path d="M23.15,35.79l.62-1.74q2.6-7.26,5.19-14.5a.53.53,0,0,1,.58-.42H37c.12,0,.27-.06.33.06s-.08.21-.15.29l-6.5,7.65-6.89,8.1A1.63,1.63,0,0,1,23.15,35.79Z"/><path d="M22.06,18.44H16.6c-.1,0-.25.06-.3-.06s.09-.18.17-.25C18.25,16.41,20,14.7,21.81,13c.18-.17.3-.19.48,0,1.77,1.72,3.55,3.42,5.33,5.13.08.08.24.15.19.28s-.21.06-.32.06Z"/><path d="M16.28,12.6h4.41c.12,0,.28,0,.33.07s-.11.2-.19.28Q18.19,15.49,15.56,18c-.2.19-.3.18-.45,0-1.16-1.69-2.33-3.37-3.5-5.06,0-.07-.16-.15-.11-.25s.19-.08.3-.08Z"/><path d="M27.86,12.6h4.42c.11,0,.27,0,.33.07s-.08.22-.14.31c-1.15,1.66-2.3,3.31-3.44,5-.17.24-.27.28-.49.06L23.29,13c-.08-.08-.25-.15-.2-.27s.23-.08.36-.08Z"/><path d="M10.61,18.44H7c-.09,0-.22,0-.27-.06s0-.17.11-.25c1.21-1.66,2.44-3.32,3.65-5,.16-.22.25-.2.4,0,1.14,1.66,2.29,3.3,3.43,5,.06.09.18.18.12.29s-.2.05-.31.05Z"/><path d="M33.52,18.44h-3.6c-.09,0-.21,0-.26-.07s.05-.16.1-.22l3.46-5c.14-.2.23-.22.38,0l3.68,5c0,.07.13.14.1.23s-.17.07-.26.07Z"/></svg>