<svg id="Capa_1" data-name="Capa 1" xmlns="http://www.w3.org/2000/svg" viewBox="0 0 44.99 44.99"><path d="M11.07,8.06a1.38,1.38,0,0,1,.88.79C12.48,9.92,13,11,13.54,12a1.09,1.09,0,0,0,.41.44c1.18.67,2.36,1.34,3.53,2a1.27,1.27,0,0,0,.66.17h6.32c.1,0,.24-.06.29.06s-.08.17-.14.24a5.79,5.79,0,0,0-.84,1.71.43.43,0,0,1-.49.34c-.55,0-.49,0-.49.51V23h0L24,19.64c.36-1,.69-2,1.07-2.95a2.89,2.89,0,0,1,1.84-1.92,2.64,2.64,0,0,1,.74-.1c1.16,0,2.31,0,3.46,0a2.72,2.72,0,0,1,2.89,2c.66,1.76,1.28,3.55,1.92,5.32.29.81.6,1.62.87,2.43a1.13,1.13,0,0,1-.9,1.54,1.15,1.15,0,0,1-1.27-.78c-.29-.76-.55-1.53-.83-2.3-.43-1.18-.85-2.36-1.3-3.53.51,2.64,1,5.27,1.54,7.91a.71.71,0,0,1-.73.89c-.71,0-.71,0-.71.7,0,2.44,0,4.88,0,7.32a1.61,1.61,0,0,1-.47,1.33,1.37,1.37,0,0,1-2.28-.84,8.42,8.42,0,0,1,0-.87c0-.87,0-1.74,0-2.61s0-1.7,0-2.55,0-1.47,0-2.21c0-.22-.08-.28-.29-.28s-.25.11-.25.29c0,2.65,0,5.29,0,7.94a1.38,1.38,0,0,1-2.76.22c0-.83,0-1.67,0-2.5,0-.26.17-.23.34-.23a1.91,1.91,0,0,0,1.89-1.47,1.35,1.35,0,0,0,0-.28c0-1.65,0-3.3,0-4.94a1.83,1.83,0,0,0-1.46-1.76A.38.38,0,0,1,27,25,1.85,1.85,0,0,0,26,23.51a.29.29,0,0,1-.16-.37c.24-1.18.46-2.36.69-3.53a.23.23,0,0,0,0-.16c-.23.64-.45,1.27-.68,1.9-.34.95-.68,1.9-1,2.84-.08.22-.07.31.2.32a.66.66,0,0,1,.67.6,6.44,6.44,0,0,1,0,1.16c0,.26.1.35.35.34s.42,0,.64,0c.57,0,.83.26.83.84,0,.89,0,1.78,0,2.67,0,.55,0,1.11,0,1.66s-.19.74-.73.8-.81,0-1.21,0c-.87,0-1.73,0-2.59,0-1.11,0-2.22,0-3.34,0a.53.53,0,0,1-.54-.44,1.75,1.75,0,0,1-.05-.4c0-1.41,0-2.83,0-4.24,0-.63.24-.87.88-.88.23,0,.47,0,.7,0s.27,0,.24-.24a6.24,6.24,0,0,1,0-1.22c0-.39.29-.68.68-.63.55.06.76-.17.91-.66.19-.66.22-.65-.46-.65a2.55,2.55,0,0,0-1.63.42,1.92,1.92,0,0,0-.79,1.49.25.25,0,0,1-.23.27,1.4,1.4,0,0,0-.28.06c-.41.13-.42.13-.44-.31,0-.27,0-.54,0-.81a3.12,3.12,0,0,0-1.76-2.78.4.4,0,0,1-.23-.41c0-1.36,0-2.71,0-4.07a.47.47,0,0,0-.28-.48c-1.35-.76-2.69-1.54-4-2.31a1.66,1.66,0,0,1-.69-.72c-.6-1.2-1.19-2.41-1.82-3.6a1.25,1.25,0,0,1,.62-1.89ZM23.33,26.6h.75c.08,0,.18,0,.21-.07a.86.86,0,0,0,0-.57c-.06-.16-.25-.11-.36-.08a2.36,2.36,0,0,1-1.09,0c-.5-.09-.54,0-.53.46,0,.18.08.26.26.25Z"/><path d="M10.93,30.5c0-2.05,0-4.11,0-6.16a.43.43,0,0,0-.32-.49c-.74-.25-1.45-.55-2.18-.82a.88.88,0,0,1-.59-.72c-.19-1-.39-2.09-.57-3.14a.92.92,0,0,1,.49-1.1A.88.88,0,0,1,9,18.79c.13.69.28,1.38.35,2.08a.94.94,0,0,0,.77.95,13.65,13.65,0,0,1,1.39.52,1,1,0,0,0,.42.07c1.15,0,2.29,0,3.44,0a2,2,0,0,1,2,1.5,2.5,2.5,0,0,1,.09.66c0,2,0,4,0,6a.86.86,0,0,1-1.15.85.82.82,0,0,1-.57-.79c0-1.17,0-2.33,0-3.49,0-.83,0-1.67,0-2.5,0-.11,0-.27-.13-.27s-.13.16-.13.27V36.72a1,1,0,1,1-2.07,0V30.81c0-.13,0-.29-.18-.29s-.19.15-.19.29v5.92a1,1,0,1,1-2.08,0Z"/><path d="M22.15,11.43a2.37,2.37,0,0,1-2.4,2.4,2.39,2.39,0,0,1,0-4.78A2.36,2.36,0,0,1,22.15,11.43Z"/><path d="M29.59,14a2.36,2.36,0,1,1,2.33-2.36A2.37,2.37,0,0,1,29.59,14Z"/><path d="M13.23,17.46a2.17,2.17,0,0,1,2.17,2.18,2.2,2.2,0,0,1-4.39,0A2.16,2.16,0,0,1,13.23,17.46Z"/><path d="M16.69,34.75c0-.59,0-1.18,0-1.77,0-.22.06-.33.29-.34a1.74,1.74,0,0,0,.68-.24c.13-.07.2,0,.25.11a1.88,1.88,0,0,0,1.38,1.29.21.21,0,0,1,.18.25c0,.85,0,1.7,0,2.56a1.39,1.39,0,0,1-2.76-.06C16.68,36,16.69,35.35,16.69,34.75Z"/><path d="M20,35.29c0-.38,0-.77,0-1.16,0-.19.06-.28.27-.28h2.29c.16,0,.26,0,.26.22a24.07,24.07,0,0,1,0,2.55,1.36,1.36,0,0,1-1.48,1.22A1.41,1.41,0,0,1,20,36.48c0-.39,0-.79,0-1.19Z"/></svg>