<svg id="Capa_1" data-name="Capa 1" xmlns="http://www.w3.org/2000/svg" viewBox="0 0 44.99 44.99"><path d="M19.29,19.93V15.87a1.46,1.46,0,0,1,1.05-1.44,1.48,1.48,0,0,1,1.89,1.42c0,1,0,2,0,3.07,0,.16,0,.24.21.28a1.35,1.35,0,0,1,.78.48.25.25,0,0,0,.22.11,1.47,1.47,0,0,1,1,.46.24.24,0,0,0,.19.07,1.49,1.49,0,0,1,1.56,1.49c0,1,0,2,0,3a4.82,4.82,0,0,1-.57,2.36c-.12.24-.25.48-.36.73a1.67,1.67,0,0,0-.16.55.72.72,0,0,1-.73.66H20.53a.71.71,0,0,1-.73-.71,2.79,2.79,0,0,0-.57-1.68,12.61,12.61,0,0,1-1.35-2.85,9.19,9.19,0,0,0-.46-1,4.79,4.79,0,0,1-.62-1.54,1.35,1.35,0,0,1,.53-1.47A1.48,1.48,0,0,1,19,19.74Zm1.09-1.19h0v2.78a.89.89,0,0,1-.06.4c-.08.14-.17.3-.37.31a.6.6,0,0,1-.69-.43,2.06,2.06,0,0,0-.21-.48,1.78,1.78,0,0,0-.59-.63.43.43,0,0,0-.46,0,.33.33,0,0,0-.13.39,1.85,1.85,0,0,0,0,.23,2.48,2.48,0,0,0,.25.58,15.58,15.58,0,0,1,1,2.33,10.56,10.56,0,0,0,1.06,2.06,3.43,3.43,0,0,1,.6,1.6c0,.1,0,.14.15.14,1,0,2,0,3,0,.07,0,.12,0,.14-.09a9.28,9.28,0,0,1,.59-1.33,3.52,3.52,0,0,0,.43-1.49V21.85c0-.38-.28-.54-.63-.38l-.38.19c-.11.07-.17.06-.21-.08s-.07-.24-.1-.36a.43.43,0,0,0-.62-.29c-.15.07-.31.13-.46.21s-.15,0-.17-.09-.06-.3-.09-.45a.43.43,0,0,0-.6-.33l-.5.2c-.23.09-.24.09-.24-.16V16c0-.32-.14-.5-.38-.5s-.37.18-.37.5Z"/><path d="M35.64,24.35A2.64,2.64,0,0,1,33,21.74a2.64,2.64,0,0,1,5.27-.15A2.62,2.62,0,0,1,35.64,24.35Zm0-1.07a1.56,1.56,0,1,0,0-3.11,1.57,1.57,0,0,0-1.57,1.55A1.59,1.59,0,0,0,35.62,23.28Z"/><path d="M18.87,35.85a2.63,2.63,0,0,1,2.66-2.63,2.64,2.64,0,0,1,0,5.28A2.64,2.64,0,0,1,18.87,35.85Zm2.63,1.57a1.56,1.56,0,1,0-1.56-1.55A1.59,1.59,0,0,0,21.5,37.42Z"/><path d="M11.55,34.3a2.63,2.63,0,0,1-2.64-2.59,2.64,2.64,0,1,1,2.64,2.59Zm1.56-2.63a1.56,1.56,0,1,0-3.12,0,1.56,1.56,0,0,0,3.12,0Z"/><path d="M31.44,34.3a2.63,2.63,0,1,1,0-5.26,2.67,2.67,0,0,1,2.62,2.65A2.64,2.64,0,0,1,31.44,34.3ZM33,31.67a1.56,1.56,0,1,0-1.56,1.56A1.6,1.6,0,0,0,33,31.67Z"/><path d="M7.35,24.35a2.64,2.64,0,0,1-2.63-2.64A2.64,2.64,0,0,1,10,21.58,2.62,2.62,0,0,1,7.35,24.35Zm0-1.07a1.55,1.55,0,0,0,1.56-1.53,1.55,1.55,0,1,0-3.1,0A1.57,1.57,0,0,0,7.35,23.28Z"/><path d="M18.87,7.59A2.63,2.63,0,0,1,21.5,5a2.64,2.64,0,1,1-.05,5.28A2.63,2.63,0,0,1,18.87,7.59ZM21.5,9.15A1.56,1.56,0,1,0,19.94,7.6,1.59,1.59,0,0,0,21.5,9.15Z"/><path d="M11.55,14.41a2.65,2.65,0,0,1-2.64-2.74,2.64,2.64,0,0,1,5.27.2A2.64,2.64,0,0,1,11.55,14.41Zm1.56-2.63a1.59,1.59,0,0,0-1.56-1.56A1.55,1.55,0,0,0,10,11.77a1.56,1.56,0,1,0,3.12,0Z"/><path d="M31.46,9.15a2.64,2.64,0,0,1,2.62,2.67,2.64,2.64,0,0,1-5.27,0A2.62,2.62,0,0,1,31.46,9.15Zm0,1.07a1.55,1.55,0,0,0-1.56,1.55,1.58,1.58,0,0,0,1.54,1.57,1.56,1.56,0,0,0,0-3.12Z"/></svg>